<svg width="65" height="65" viewBox="0 0 65 65" fill="none" xmlns="http://www.w3.org/2000/svg">
<rect width="65" height="65" rx="32.5" fill="#13131B"/>
<path d="M45.3425 20.5179C42.9474 19.3973 40.3865 18.5829 37.7091 18.1191C37.3803 18.7136 36.9962 19.5132 36.7313 20.1493C33.8852 19.7213 31.0652 19.7213 28.2715 20.1493C28.0066 19.5132 27.6138 18.7136 27.282 18.1191C24.6017 18.5829 22.0379 19.4003 19.6428 20.5238C14.8119 27.8239 13.5023 34.9427 14.1571 41.9604C17.3612 44.3531 20.4664 45.8067 23.5191 46.7578C24.2729 45.7204 24.9451 44.6177 25.5242 43.4555C24.4213 43.0364 23.3649 42.5192 22.3667 41.9188C22.6315 41.7226 22.8906 41.5175 23.1408 41.3065C29.2289 44.154 35.8437 44.154 41.8591 41.3065C42.1122 41.5175 42.3712 41.7226 42.6331 41.9188C41.632 42.5222 40.5728 43.0394 39.4698 43.4585C40.0489 44.6177 40.7183 45.7234 41.4749 46.7607C44.5306 45.8096 47.6386 44.3561 50.8427 41.9604C51.611 33.8251 49.5303 26.7717 45.3425 20.5179ZM26.3536 37.6446C24.5261 37.6446 23.0273 35.9384 23.0273 33.8607C23.0273 31.7831 24.4941 30.074 26.3536 30.074C28.2133 30.074 29.712 31.7801 29.68 33.8607C29.6829 35.9384 28.2133 37.6446 26.3536 37.6446ZM38.6462 37.6446C36.8187 37.6446 35.3199 35.9384 35.3199 33.8607C35.3199 31.7831 36.7866 30.074 38.6462 30.074C40.5058 30.074 42.0046 31.7801 41.9726 33.8607C41.9726 35.9384 40.5058 37.6446 38.6462 37.6446Z" fill="#5865F2"/>
</svg>
