<svg width="49" height="49" viewBox="0 0 49 49" fill="none" xmlns="http://www.w3.org/2000/svg">
<g filter="url(#filter0_b_150_4642)">
<circle cx="24.5" cy="24.5" r="24.5" fill="#202020" fill-opacity="0.5"/>
</g>
<path d="M31.645 23.4274H25.5711V17.3535C25.5711 17.0692 25.4581 16.7966 25.2571 16.5956C25.0561 16.3945 24.7835 16.2816 24.4992 16.2816C24.2149 16.2816 23.9423 16.3945 23.7413 16.5956C23.5403 16.7966 23.4273 17.0692 23.4273 17.3535V23.4274H17.3534C17.0691 23.4274 16.7965 23.5404 16.5954 23.7414C16.3944 23.9424 16.2815 24.215 16.2815 24.4993C16.2815 24.7836 16.3944 25.0562 16.5954 25.2573C16.7965 25.4583 17.0691 25.5712 17.3534 25.5712H23.4273V31.6452C23.4273 31.9294 23.5403 32.2021 23.7413 32.4031C23.9423 32.6041 24.2149 32.717 24.4992 32.717C24.7835 32.717 25.0561 32.6041 25.2571 32.4031C25.4581 32.2021 25.5711 31.9294 25.5711 31.6452V25.5712H31.645C31.9293 25.5712 32.202 25.4583 32.403 25.2573C32.604 25.0562 32.7169 24.7836 32.7169 24.4993C32.7169 24.215 32.604 23.9424 32.403 23.7414C32.202 23.5404 31.9293 23.4274 31.645 23.4274Z" fill="white"/>
<defs>
<filter id="filter0_b_150_4642" x="-19" y="-19" width="87" height="87" filterUnits="userSpaceOnUse" color-interpolation-filters="sRGB">
<feFlood flood-opacity="0" result="BackgroundImageFix"/>
<feGaussianBlur in="BackgroundImageFix" stdDeviation="9.5"/>
<feComposite in2="SourceAlpha" operator="in" result="effect1_backgroundBlur_150_4642"/>
<feBlend mode="normal" in="SourceGraphic" in2="effect1_backgroundBlur_150_4642" result="shape"/>
</filter>
</defs>
</svg>
