<svg width="22" height="20" viewBox="0 0 22 20" fill="none" xmlns="http://www.w3.org/2000/svg">
<path d="M5.00002 7H3.00002C1.89545 7 1.00002 7.89543 1.00002 9V16C1.00002 17.1046 1.89545 18 3.00002 18H5.00002C6.10459 18 7.00002 17.1046 7.00002 16L7.00002 9C7.00002 7.89543 6.10459 7 5.00002 7Z" stroke="#88888C" stroke-width="1.5" stroke-linecap="round" stroke-linejoin="round"/>
<path d="M14.8769 19H11.2111C10.4214 19 9.64939 18.7662 8.99232 18.3282L7.44532 17.2969C7.16712 17.1114 7.00002 16.7992 7.00002 16.4648L7.00002 8.26556C7.00002 8.09154 7.04543 7.92052 7.13178 7.76943L11 1H12.3287C14.3255 1 15.5164 3.22536 14.4089 4.88675L13 7L18.4385 7C19.7396 7 20.6943 8.22278 20.3788 9.48507L18.7575 15.9701C18.3123 17.7508 16.7124 19 14.8769 19Z" stroke="#88888C" stroke-width="1.5" stroke-linecap="round" stroke-linejoin="round"/>
</svg>
