<svg width="25" height="25" viewBox="0 0 25 25" fill="none" xmlns="http://www.w3.org/2000/svg">
<path d="M17.0404 15.6262C16.6499 15.2357 16.0168 15.2357 15.6262 15.6262C15.2357 16.0168 15.2357 16.6499 15.6262 17.0404L17.0404 15.6262ZM23.2929 24.7071C23.6834 25.0976 24.3166 25.0976 24.7071 24.7071C25.0976 24.3166 25.0976 23.6834 24.7071 23.2929L23.2929 24.7071ZM9.94444 17.8889C5.55685 17.8889 2 14.332 2 9.94444H0C0 15.4366 4.45228 19.8889 9.94444 19.8889V17.8889ZM2 9.94444C2 5.55685 5.55685 2 9.94444 2V0C4.45228 0 0 4.45228 0 9.94444H2ZM9.94444 2C14.332 2 17.8889 5.55685 17.8889 9.94444H19.8889C19.8889 4.45228 15.4366 0 9.94444 0V2ZM17.8889 9.94444C17.8889 14.332 14.332 17.8889 9.94444 17.8889V19.8889C15.4366 19.8889 19.8889 15.4366 19.8889 9.94444H17.8889ZM15.6262 17.0404L23.2929 24.7071L24.7071 23.2929L17.0404 15.6262L15.6262 17.0404Z" fill="white"/>
</svg>
