<svg width="32" height="31" viewBox="0 0 32 31" fill="none" xmlns="http://www.w3.org/2000/svg">
<path d="M1.27505 26.1519L4.44172 19.7352C4.70487 19.2061 5.10749 18.7612 5.60495 18.4497C6.1024 18.1383 6.67528 17.9725 7.26005 17.9707L12.8334 17.9707C13.4633 17.9707 14.0674 17.7171 14.5128 17.2659C14.9582 16.8146 15.2084 16.2026 15.2084 15.5644C15.2084 14.9262 14.9582 14.3142 14.5128 13.8629C14.0674 13.4117 13.4633 13.1582 12.8334 13.1582L7.26005 13.1582C6.67528 13.1564 6.1024 12.9905 5.60495 12.6791C5.10749 12.3676 4.70487 11.9227 4.44172 11.3936L1.27505 4.9769C0.980871 4.37532 0.880373 3.69538 0.987711 3.03288C1.09505 2.37037 1.40482 1.75867 1.87338 1.28394C2.34195 0.809207 2.94571 0.495362 3.59961 0.386611C4.25351 0.27786 4.92462 0.379683 5.51839 0.677737L29.3634 12.7732C29.8821 13.0424 30.3174 13.4514 30.6214 13.9552C30.9253 14.4591 31.0862 15.0381 31.0862 15.6286C31.0862 16.2191 30.9253 16.7981 30.6214 17.3019C30.3174 17.8057 29.8821 18.2148 29.3634 18.484L5.51839 30.5794C4.91185 30.9098 4.21555 31.0308 3.53501 30.9242C2.85446 30.8176 2.22676 30.4891 1.74704 29.9886C1.26731 29.488 0.961709 28.8427 0.87654 28.1504C0.791369 27.458 0.931275 26.7564 1.27505 26.1519Z" fill="#F9F9F9"/>
</svg>
