<svg width="155" height="155" viewBox="0 0 155 155" fill="none" xmlns="http://www.w3.org/2000/svg">
<circle cx="77.5" cy="77.5" r="77.5" fill="#13131B"/>
<path d="M87 78V84C87 86.2091 85.2091 88 83 88H71C68.7909 88 67 86.2091 67 84V72C67 69.7909 68.7909 68 71 68H77M80.6864 70.0227C80.6864 70.0227 80.6864 71.453 82.1167 72.8833C83.547 74.3136 84.9773 74.3136 84.9773 74.3136M74.1547 81.9896L77.1583 81.5605C77.5916 81.4986 77.9931 81.2978 78.3025 80.9884L86.4076 72.8833C87.1975 72.0934 87.1975 70.8127 86.4076 70.0227L84.9773 68.5924C84.1873 67.8025 82.9066 67.8025 82.1167 68.5924L74.0116 76.6975C73.7022 77.0069 73.5014 77.4084 73.4395 77.8417L73.0104 80.8453C72.9151 81.5128 73.4872 82.0849 74.1547 81.9896Z" stroke="white" stroke-width="1.5" stroke-linecap="round"/>
</svg>
