<svg width="326" height="253" viewBox="0 0 326 253" fill="none" xmlns="http://www.w3.org/2000/svg">
<rect width="326" height="253" rx="12" fill="#6B6AFF"/>
<path fill-rule="evenodd" clip-rule="evenodd" d="M154.836 61.1124C150.761 63.5644 147.025 70.0945 147.056 74.7102C147.084 78.9085 150.091 85.4088 152.905 87.3579C155.224 88.9648 155.281 89.2446 155.028 97.77L154.768 106.532L136.12 107.013C117.648 107.489 117.432 107.52 113.081 110.223C105.864 114.706 101.57 123.457 101.56 133.697C101.554 138.682 101.52 138.745 98.7798 138.745C92.063 138.745 87 144.216 87 151.472C87 155.619 87.4057 156.675 90.0928 159.516C92.688 162.259 93.8405 162.785 97.2534 162.785H101.32L101.742 170.237C102.218 178.678 104.199 183.649 108.979 188.4C115.917 195.296 113.501 194.998 162.5 194.998C211.5 194.998 209.083 195.296 216.021 188.4C220.714 183.735 222.665 178.832 223.217 170.316L223.706 162.785H227.76C231.158 162.785 232.315 162.256 234.907 159.516C237.594 156.675 238 155.619 238 151.472C238 144.27 232.937 138.745 226.339 138.745C223.688 138.745 223.685 138.738 223.257 131.709C222.563 120.275 216.994 111.705 208.064 108.331C205.853 107.496 199.142 107.084 187.288 107.055L169.777 107.013V97.9883C169.777 89.3455 169.876 88.8946 172.128 87.3358C174.872 85.4348 177.916 78.9094 177.944 74.8631C177.955 73.3111 177.106 70.1676 176.057 67.8781C172.3 59.6738 162.449 56.5333 154.836 61.1124ZM121.088 115.784C117.008 116.757 113.209 120.021 111.071 124.392C109.875 126.838 109.697 131.141 109.926 152.18C110.223 179.587 110.188 179.412 116.459 184.361C118.914 186.299 119.954 186.344 162.5 186.344C205.046 186.344 206.086 186.299 208.541 184.361C214.812 179.412 214.777 179.587 215.074 152.18C215.303 131.141 215.125 126.838 213.929 124.392C211.677 119.788 207.972 116.785 203.211 115.707C197.755 114.47 126.322 114.537 121.088 115.784ZM130.719 140.502C127.376 142.397 124.295 147.45 124.295 151.038C124.295 154.127 126.53 158.389 129.403 160.777C131.116 162.201 133.131 162.785 136.334 162.785C140.258 162.785 141.256 162.356 143.943 159.516C146.63 156.675 147.036 155.619 147.036 151.472C147.036 146.126 145.019 142.566 140.633 140.168C137.183 138.282 134.474 138.373 130.719 140.502ZM183.756 140.59C179.508 143.328 177.964 146.25 177.964 151.556C177.964 155.608 178.385 156.691 181.057 159.516C183.744 162.356 184.742 162.785 188.666 162.785C191.869 162.785 193.884 162.201 195.597 160.777C198.47 158.389 200.705 154.127 200.705 151.038C200.705 147.45 197.624 142.397 194.281 140.502C190.323 138.259 187.333 138.284 183.756 140.59Z" fill="white"/>
</svg>
