<svg width="196" height="32" viewBox="0 0 196 32" fill="none" xmlns="http://www.w3.org/2000/svg">
<path d="M59.5365 25.713H55L61.9123 6.11936H67.3678L74.2703 25.713H69.7338L64.7182 10.5968H64.5618L59.5365 25.713ZM59.253 18.0114H69.9684V21.2451H59.253V18.0114Z" fill="white"/>
<path d="M88.7474 15.2082L84.9344 15.4378C84.8692 15.1189 84.7291 14.8319 84.514 14.5768C84.2989 14.3153 84.0154 14.108 83.6634 13.9549C83.318 13.7954 82.9041 13.7157 82.4218 13.7157C81.7765 13.7157 81.2322 13.8497 80.789 14.1175C80.3458 14.379 80.1242 14.7298 80.1242 15.1699C80.1242 15.5207 80.2676 15.8173 80.5544 16.0597C80.8412 16.3021 81.3333 16.4966 82.0307 16.6433L84.7487 17.179C86.2087 17.4724 87.2972 17.9444 88.0141 18.595C88.7311 19.2456 89.0896 20.1002 89.0896 21.159C89.0896 22.1221 88.7996 22.9672 88.2195 23.6943C87.6459 24.4214 86.8572 24.9891 85.8534 25.3973C84.8562 25.7991 83.7058 26 82.4022 26C80.4142 26 78.8304 25.595 77.6506 24.785C76.4774 23.9686 75.7898 22.8588 75.5877 21.4556L79.6842 21.2451C79.8081 21.8383 80.1079 22.2911 80.5837 22.6036C81.0595 22.9098 81.6689 23.0629 82.412 23.0629C83.142 23.0629 83.7286 22.9257 84.1718 22.6515C84.6216 22.3708 84.8497 22.0105 84.8562 21.5704C84.8497 21.2005 84.69 20.8975 84.3771 20.6615C84.0643 20.4191 83.5819 20.2342 82.9302 20.1066L80.3295 19.5995C78.863 19.3125 77.7712 18.815 77.0542 18.1071C76.3438 17.3991 75.9886 16.4966 75.9886 15.3995C75.9886 14.4556 76.2493 13.6424 76.7707 12.9599C77.2987 12.2775 78.0384 11.7513 78.9901 11.3813C79.9482 11.0114 81.0693 10.8264 82.3533 10.8264C84.25 10.8264 85.7426 11.2187 86.8311 12.0032C87.9262 12.7877 88.5649 13.856 88.7474 15.2082Z" fill="white"/>
<path d="M95.4861 21.4843L95.4959 16.5954H96.1021L100.912 11.0178H105.693L99.2307 18.4036H98.2432L95.4861 21.4843ZM91.7123 25.713V6.11936H95.8772V25.713H91.7123ZM101.098 25.713L96.6789 19.3125L99.4556 16.4328L105.977 25.713H101.098Z" fill="white"/>
<path d="M107.815 25.713V6.11936H115.715C117.233 6.11936 118.527 6.40319 119.596 6.97084C120.665 7.53212 121.48 8.31344 122.04 9.31481C122.607 10.3098 122.891 11.4579 122.891 12.759C122.891 14.0601 122.604 15.2082 122.03 16.2032C121.457 17.1982 120.626 17.9731 119.537 18.528C118.455 19.0829 117.145 19.3604 115.607 19.3604H110.572V16.0405H114.923C115.737 16.0405 116.409 15.9034 116.937 15.6292C117.471 15.3485 117.869 14.9626 118.129 14.4715C118.397 13.974 118.53 13.4032 118.53 12.759C118.53 12.1084 118.397 11.5408 118.129 11.056C117.869 10.5649 117.471 10.1854 116.937 9.91754C116.402 9.64328 115.724 9.50615 114.903 9.50615H112.048V25.713H107.815Z" fill="white"/>
<path d="M129.441 25.9904C128.483 25.9904 127.629 25.8278 126.88 25.5025C126.13 25.1708 125.537 24.6829 125.1 24.0387C124.67 23.3882 124.455 22.5781 124.455 21.6087C124.455 20.7923 124.608 20.1066 124.915 19.5517C125.221 18.9968 125.638 18.5503 126.166 18.2123C126.694 17.8743 127.294 17.6191 127.965 17.4469C128.643 17.2747 129.353 17.1535 130.096 17.0834C130.97 16.9941 131.674 16.9112 132.208 16.8346C132.743 16.7517 133.13 16.6305 133.372 16.4711C133.613 16.3116 133.733 16.0756 133.733 15.7631V15.7057C133.733 15.0998 133.538 14.631 133.147 14.2993C132.762 13.9677 132.215 13.8018 131.504 13.8018C130.755 13.8018 130.158 13.9645 129.715 14.2898C129.272 14.6087 128.979 15.0105 128.835 15.4952L124.983 15.1891C125.179 14.2961 125.563 13.5244 126.137 12.8738C126.71 12.2169 127.45 11.713 128.356 11.3622C129.269 11.005 130.324 10.8264 131.524 10.8264C132.358 10.8264 133.157 10.9221 133.919 11.1134C134.688 11.3048 135.369 11.6014 135.962 12.0032C136.562 12.405 137.035 12.9216 137.38 13.5531C137.726 14.1781 137.898 14.9276 137.898 15.8014V25.713H133.948V23.6752H133.831C133.59 24.1344 133.267 24.5394 132.863 24.8902C132.459 25.2346 131.974 25.5057 131.406 25.7034C130.839 25.8948 130.184 25.9904 129.441 25.9904ZM130.634 23.1777C131.247 23.1777 131.788 23.0597 132.257 22.8237C132.726 22.5813 133.095 22.256 133.362 21.8478C133.629 21.4396 133.763 20.9772 133.763 20.4606V18.9011C133.632 18.9841 133.453 19.0606 133.225 19.1308C133.003 19.1945 132.752 19.2551 132.472 19.3125C132.192 19.3636 131.912 19.4114 131.631 19.456C131.351 19.4943 131.097 19.5294 130.869 19.5613C130.38 19.6314 129.953 19.7431 129.588 19.8961C129.223 20.0492 128.939 20.2565 128.737 20.518C128.535 20.7731 128.434 21.092 128.434 21.4747C128.434 22.0296 128.64 22.4538 129.05 22.7472C129.467 23.0342 129.995 23.1777 130.634 23.1777Z" fill="white"/>
<path d="M145.295 17.2173V25.713H141.13V11.0178H145.099V13.6105H145.275C145.607 12.7558 146.165 12.0797 146.947 11.5822C147.729 11.0784 148.677 10.8264 149.792 10.8264C150.835 10.8264 151.744 11.0497 152.52 11.4961C153.295 11.9426 153.898 12.5804 154.328 13.4096C154.759 14.2323 154.974 15.2146 154.974 16.3563V25.713H150.809V17.0834C150.815 16.1841 150.581 15.4825 150.105 14.9786C149.629 14.4683 148.974 14.2132 148.14 14.2132C147.579 14.2132 147.084 14.3312 146.654 14.5672C146.23 14.8032 145.897 15.1476 145.656 15.6005C145.422 16.0469 145.301 16.5859 145.295 17.2173Z" fill="white"/>
<path d="M163.79 25.9522C162.649 25.9522 161.616 25.6651 160.691 25.0911C159.772 24.5107 159.042 23.6592 158.501 22.5367C157.966 21.4077 157.699 20.0237 157.699 18.3845C157.699 16.7007 157.976 15.3007 158.53 14.1845C159.084 13.062 159.821 12.2232 160.74 11.6683C161.665 11.1071 162.679 10.8264 163.78 10.8264C164.621 10.8264 165.322 10.9667 165.882 11.2474C166.449 11.5216 166.906 11.8661 167.251 12.2806C167.603 12.6888 167.87 13.0907 168.053 13.4861H168.18V6.11936H172.335V25.713H168.229V23.3595H168.053C167.857 23.7677 167.58 24.1727 167.222 24.5745C166.87 24.9699 166.41 25.2984 165.843 25.5599C165.283 25.8214 164.598 25.9522 163.79 25.9522ZM165.11 22.7089C165.781 22.7089 166.348 22.5303 166.811 22.1731C167.28 21.8096 167.639 21.3025 167.887 20.6519C168.141 20.0014 168.268 19.2392 168.268 18.3654C168.268 17.4916 168.144 16.7326 167.896 16.0884C167.649 15.4442 167.29 14.9467 166.821 14.5959C166.352 14.2451 165.781 14.0697 165.11 14.0697C164.425 14.0697 163.849 14.2515 163.379 14.615C162.91 14.9786 162.555 15.4825 162.314 16.1267C162.073 16.7708 161.952 17.5171 161.952 18.3654C161.952 19.22 162.073 19.9759 162.314 20.6328C162.561 21.2834 162.917 21.7936 163.379 22.1636C163.849 22.5271 164.425 22.7089 165.11 22.7089Z" fill="white"/>
<path d="M175.759 25.713V11.0178H179.924V25.713H175.759ZM177.852 9.12346C177.232 9.12346 176.701 8.92255 176.258 8.52073C175.821 8.11253 175.603 7.6246 175.603 7.05695C175.603 6.49567 175.821 6.01412 176.258 5.6123C176.701 5.2041 177.232 5 177.852 5C178.471 5 178.999 5.2041 179.435 5.6123C179.879 6.01412 180.1 6.49567 180.1 7.05695C180.1 7.6246 179.879 8.11253 179.435 8.52073C178.999 8.92255 178.471 9.12346 177.852 9.12346Z" fill="white"/>
<path d="M187.543 25.9904C186.585 25.9904 185.731 25.8278 184.981 25.5025C184.232 25.1708 183.639 24.6829 183.202 24.0387C182.772 23.3882 182.557 22.5781 182.557 21.6087C182.557 20.7923 182.71 20.1066 183.016 19.5517C183.323 18.9968 183.74 18.5503 184.268 18.2123C184.796 17.8743 185.395 17.6191 186.067 17.4469C186.745 17.2747 187.455 17.1535 188.198 17.0834C189.071 16.9941 189.775 16.9112 190.31 16.8346C190.844 16.7517 191.232 16.6305 191.473 16.4711C191.714 16.3116 191.835 16.0756 191.835 15.7631V15.7057C191.835 15.0998 191.639 14.631 191.248 14.2993C190.864 13.9677 190.316 13.8018 189.606 13.8018C188.856 13.8018 188.26 13.9645 187.817 14.2898C187.374 14.6087 187.08 15.0105 186.937 15.4952L183.085 15.1891C183.28 14.2961 183.665 13.5244 184.238 12.8738C184.812 12.2169 185.552 11.713 186.458 11.3622C187.37 11.005 188.426 10.8264 189.625 10.8264C190.46 10.8264 191.258 10.9221 192.021 11.1134C192.79 11.3048 193.471 11.6014 194.064 12.0032C194.664 12.405 195.136 12.9216 195.482 13.5531C195.827 14.1781 196 14.9276 196 15.8014V25.713H192.05V23.6752H191.933C191.692 24.1344 191.369 24.5394 190.965 24.8902C190.561 25.2346 190.075 25.5057 189.508 25.7034C188.941 25.8948 188.286 25.9904 187.543 25.9904ZM188.736 23.1777C189.348 23.1777 189.889 23.0597 190.359 22.8237C190.828 22.5813 191.196 22.256 191.464 21.8478C191.731 21.4396 191.864 20.9772 191.864 20.4606V18.9011C191.734 18.9841 191.555 19.0606 191.327 19.1308C191.105 19.1945 190.854 19.2551 190.574 19.3125C190.294 19.3636 190.013 19.4114 189.733 19.456C189.453 19.4943 189.199 19.5294 188.97 19.5613C188.482 19.6314 188.055 19.7431 187.69 19.8961C187.325 20.0492 187.041 20.2565 186.839 20.518C186.637 20.7731 186.536 21.092 186.536 21.4747C186.536 22.0296 186.741 22.4538 187.152 22.7472C187.569 23.0342 188.097 23.1777 188.736 23.1777Z" fill="white"/>
<path fill-rule="evenodd" clip-rule="evenodd" d="M21.3688 0.0430956C15.5992 0.340378 10.3228 2.90643 7.04987 7.00675C4.14049 10.6516 3.14391 15.0999 4.25285 19.491C4.94942 22.2489 6.66231 24.9911 8.97132 27.0449L9.59747 27.6018L9.57579 27.8688C9.48629 28.9736 9.05985 30.2112 8.46956 31.0793C8.33868 31.2718 8.23159 31.4343 8.23159 31.4405C8.23159 31.4467 8.35244 31.4421 8.50009 31.4302C9.8561 31.3216 11.3309 30.741 12.4348 29.8813L12.7256 29.6549L13.2276 29.9001C16.8096 31.6502 21.0276 32.3387 25.1344 31.8435C31.211 31.1108 36.5095 27.8318 39.2608 23.1015C41.6685 18.962 41.8314 13.9667 39.697 9.72734C37.6933 5.7475 33.9423 2.64775 29.2407 1.08638C27.4161 0.480475 25.6032 0.150343 23.4978 0.0407057C22.449 -0.0139604 22.4764 -0.0139606 21.3688 0.0430956ZM0.918109 4.21486C0.819658 4.27222 0.693079 4.38038 0.636821 4.45524C0.537296 4.58756 0.534176 4.68179 0.520675 7.91329L0.506815 11.2354L0.75532 10.9384C1.0521 10.5838 1.44949 10.2216 1.85147 9.9393L2.14555 9.73273V7.20767V4.6826L2.02925 4.51102C1.76289 4.11799 1.29723 3.99386 0.918109 4.21486ZM43.2607 4.22381C43.1658 4.28737 43.0358 4.41664 42.9718 4.51102L42.8555 4.6826V7.20767V9.73273L43.1582 9.94494C43.5459 10.2168 44.0454 10.6759 44.2971 10.9919L44.4943 11.2393L44.4804 7.91533C44.4669 4.68189 44.4637 4.58756 44.3643 4.45488C44.1084 4.11356 43.5879 4.00459 43.2607 4.22381ZM13.0984 7.11232C12.6736 7.16709 12.3337 7.27978 11.8556 7.52432C11.3679 7.77375 10.9378 8.15748 10.4124 8.812C8.16551 11.6107 7.3264 14.895 8.00441 18.2368C8.32815 19.8323 9.06062 21.4113 10.1623 22.8884C11.1231 24.1764 11.9878 24.7599 13.1507 24.9049C13.7206 24.9759 31.1982 24.9768 31.8214 24.9058C32.7146 24.804 33.5083 24.3989 34.1395 23.7225C35.5272 22.2353 36.6072 20.1614 36.9962 18.2368C37.5096 15.696 37.1642 13.235 35.9676 10.9089C35.4451 9.89322 34.5097 8.60493 33.8779 8.03076C33.3174 7.52153 32.5934 7.19739 31.8192 7.10917C31.2766 7.04733 13.579 7.05033 13.0984 7.11232ZM3.79993 9.87456C1.6178 10.7684 0.376604 12.3839 0.0520496 14.7527C-0.0268133 15.3281 -0.0137718 16.8052 0.0756776 17.4315C0.350828 19.3584 1.21111 20.7273 2.69979 21.607C3.12259 21.8569 3.92978 22.2229 4.20825 22.2909L4.35309 22.3264L4.22754 22.0783C3.71764 21.071 3.1949 19.1909 3.00618 17.6857C2.92042 17.002 2.92103 15.0265 3.00716 14.3295C3.18953 12.8531 3.72198 10.9341 4.22401 9.94347C4.30722 9.77931 4.32568 9.70222 4.28164 9.70283C4.246 9.70334 4.02925 9.78064 3.79993 9.87456ZM40.7653 9.91804C41.0824 10.5352 41.5859 12.0734 41.7784 13.013C41.995 14.0696 42.0553 14.7188 42.0566 16.0076C42.058 17.3481 41.995 17.99 41.7525 19.1052C41.5304 20.1262 41.0859 21.4721 40.7625 22.1025C40.6958 22.2323 40.6768 22.3133 40.713 22.3133C40.8388 22.3133 41.7275 21.9303 42.1504 21.6937C43.1357 21.1425 43.8471 20.4053 44.3295 19.4355C44.5706 18.9508 44.7208 18.5082 44.8579 17.8778C44.9898 17.2712 45.0465 15.4953 44.9557 14.8125C44.6625 12.6065 43.5857 11.0357 41.7311 10.1084C41.3882 9.93701 40.795 9.70192 40.7053 9.70192C40.6773 9.70192 40.7043 9.7992 40.7653 9.91804ZM15.081 12.7563C14.4059 12.8551 13.6529 13.2598 13.15 13.7944C12.5373 14.4457 12.3338 15.1606 12.6456 15.567C12.9235 15.9293 13.1432 15.9485 14.1898 15.7022C14.8086 15.5565 14.996 15.5337 15.5706 15.5337C16.1443 15.5337 16.3337 15.5567 16.9515 15.7016C17.7653 15.8926 18.0059 15.908 18.2451 15.7845C19.1123 15.3369 18.3971 13.7649 17.0166 13.0842C16.3479 12.7544 15.7667 12.656 15.081 12.7563ZM28.8431 12.7803C28.031 12.9263 27.1292 13.5215 26.7072 14.1899C26.4555 14.5886 26.3874 14.7852 26.3876 15.1125C26.3879 15.5807 26.6891 15.8773 27.1546 15.8681C27.2812 15.8656 27.6218 15.8056 27.9114 15.7348C29.0823 15.4485 29.7774 15.4476 30.9392 15.7307C31.538 15.8766 31.9311 15.9045 32.1006 15.813C32.1627 15.7794 32.2774 15.6688 32.3555 15.567C32.7694 15.0274 32.2467 13.9484 31.2529 13.2915C30.8288 13.0112 30.4627 12.864 29.9675 12.7748C29.5007 12.6908 29.3361 12.6916 28.8431 12.7803ZM23.8847 17.5903C23.8163 17.6169 23.649 17.742 23.513 17.8684C23.1756 18.1822 22.9102 18.2937 22.5005 18.2937C22.088 18.2937 21.8566 18.1945 21.4561 17.8461C21.1946 17.6185 21.1262 17.584 20.9373 17.584C20.757 17.584 20.6969 17.6109 20.5872 17.7405C20.3333 18.0405 20.458 18.3405 21.0077 18.752C21.9757 19.4766 23.0398 19.47 24.0193 18.7332C24.547 18.3363 24.6698 18.0212 24.4056 17.7423C24.2451 17.5729 24.0653 17.5204 23.8847 17.5903Z" fill="#6B6AFF"/>
</svg>
