<svg width="25" height="25" viewBox="0 0 25 25" fill="none" xmlns="http://www.w3.org/2000/svg">
<path d="M13.5417 14.5833C14.6923 14.5833 15.625 13.6506 15.625 12.5C15.625 11.3494 14.6923 10.4167 13.5417 10.4167C12.3911 10.4167 11.4583 11.3494 11.4583 12.5C11.4583 13.6506 12.3911 14.5833 13.5417 14.5833ZM13.5417 14.5833V22.9167M8.33333 6.24999H18.75C19.9006 6.24999 20.8333 5.31725 20.8333 4.16666C20.8333 3.01607 19.9006 2.08333 18.75 2.08333H8.33333C7.18274 2.08333 6.25 3.01607 6.25 4.16666C6.25 5.31725 7.18274 6.24999 8.33333 6.24999ZM8.32497 6.24999H18.7584L20.5438 11.8002C21.0614 13.1072 20.878 14.5637 20.0496 15.7259L14.5332 22.4229C14.0639 23.0812 13.0194 23.0812 12.5501 22.4229L7.03373 15.7259C6.20529 14.5637 6.02193 13.1072 6.53953 11.8002L8.32497 6.24999Z" stroke="#929296" stroke-width="1.5"/>
</svg>
