<svg width="20" height="18" viewBox="0 0 20 18" fill="none" xmlns="http://www.w3.org/2000/svg">
<path fill-rule="evenodd" clip-rule="evenodd" d="M9.28888 9.36396e-07L6.12308 1.21316e-06C4.28761 1.37362e-06 2.68768 1.24919 2.24251 3.02986L0.621246 9.51493C0.305673 10.7772 1.26039 12 2.56153 12L7.49998 12L6.19312 14.2403C5.22092 15.907 6.42309 18 8.35257 18L9.49998 18L13.3682 11.2306C13.4546 11.0795 13.5 10.9085 13.5 10.7344L13.5 2.53518C13.5 2.20083 13.3329 1.8886 13.0547 1.70313L11.5077 0.671799C10.8506 0.233752 10.0786 8.67358e-07 9.28888 9.36396e-07ZM18 12L17 12C15.8954 12 15 11.1046 15 10L15 3C15 1.89543 15.8954 1 17 1L18 1C19.1046 1 20 1.89543 20 3L20 10C20 11.1046 19.1046 12 18 12Z" fill="white"/>
</svg>
