<svg width="25" height="25" viewBox="0 0 25 25" fill="none" xmlns="http://www.w3.org/2000/svg">
<path d="M14.715 3.125H17.6579C18.2906 3.125 18.8931 3.39896 19.3134 3.87778L22.3572 7.3453C23.0636 8.15002 23.1057 9.34948 22.4574 10.2029L14.2556 20.9996C13.369 22.1668 11.6311 22.1668 10.7444 20.9996L2.5427 10.2029C1.89442 9.34948 1.93646 8.15002 2.64285 7.3453L5.68669 3.87778C6.10701 3.39896 6.70948 3.125 7.34214 3.125H10.5312M14.715 3.125L16.9299 8.73214M14.715 3.125H10.5312M16.9299 8.73214H22.4672M16.9299 8.73214L12.5 21.6286L8.07021 8.73214M16.9299 8.73214H8.07021M10.5312 3.125L8.07021 8.73214M2.53292 8.73214H8.07021" stroke="#929296" stroke-width="1.5" stroke-linecap="round" stroke-linejoin="round"/>
</svg>
