<svg width="18" height="17" viewBox="0 0 18 17" fill="none" xmlns="http://www.w3.org/2000/svg">
<path d="M1.875 2.95833H7.41667M7.41667 2.95833C7.41667 3.83278 8.12555 4.54167 9 4.54167C9.87445 4.54167 10.5833 3.83278 10.5833 2.95833M7.41667 2.95833C7.41667 2.08388 8.12555 1.375 9 1.375C9.87445 1.375 10.5833 2.08388 10.5833 2.95833M1.875 8.5H9M14.5417 8.5H16.125M14.5417 8.5C14.5417 9.37445 13.8328 10.0833 12.9583 10.0833C12.0839 10.0833 11.375 9.37445 11.375 8.5C11.375 7.62555 12.0839 6.91667 12.9583 6.91667C13.8328 6.91667 14.5417 7.62555 14.5417 8.5ZM10.5833 2.95833H16.125M9 14.0417H16.125M1.875 14.0417H3.45833M3.45833 14.0417C3.45833 14.9161 4.16722 15.625 5.04167 15.625C5.91612 15.625 6.625 14.9161 6.625 14.0417C6.625 13.1672 5.91612 12.4583 5.04167 12.4583C4.16722 12.4583 3.45833 13.1672 3.45833 14.0417Z" stroke="white" stroke-width="2" stroke-linecap="round"/>
</svg>
