<svg width="24" height="24" viewBox="0 0 24 24" fill="none" xmlns="http://www.w3.org/2000/svg">
<path d="M15 17.4398L16.57 18.9998L20 15.5698" stroke="#111119" stroke-width="1.5" stroke-linecap="round" stroke-linejoin="round"/>
<path d="M11.5 9.6499C13.1569 9.6499 14.5 8.30676 14.5 6.6499C14.5 4.99305 13.1569 3.6499 11.5 3.6499C9.84315 3.6499 8.5 4.99305 8.5 6.6499C8.5 8.30676 9.84315 9.6499 11.5 9.6499Z" stroke="#111119" stroke-width="1.5" stroke-linecap="round" stroke-linejoin="round"/>
<path d="M4.00001 20C3.99753 18.6577 4.35576 17.3395 5.03725 16.1832C5.71874 15.0268 6.69844 14.0749 7.87386 13.4269C9.04929 12.7788 10.3773 12.4586 11.7188 12.4996C13.0604 12.5406 14.3664 12.9414 15.5 13.66" stroke="#111119" stroke-width="1.5" stroke-linecap="round" stroke-linejoin="round"/>
</svg>
