<svg width="65" height="65" viewBox="0 0 65 65" fill="none" xmlns="http://www.w3.org/2000/svg">
<rect width="65" height="65" rx="32.5" fill="#13131B"/>
<path d="M48.78 32.8857C48.78 31.6832 48.6721 30.527 48.4717 29.417H32.5V35.9845H41.6267C41.2258 38.0966 40.0233 39.8849 38.2196 41.0874V45.3578H43.7233C46.93 42.3978 48.78 38.0503 48.78 32.8857Z" fill="#4285F4"/>
<path d="M32.5 49.4581C37.0788 49.4581 40.9175 47.9473 43.7233 45.3573L38.2196 41.0869C36.7088 42.1044 34.7817 42.7211 32.5 42.7211C28.0908 42.7211 24.3446 39.7456 23.0033 35.7373H17.3608V40.1156C20.1513 45.6502 25.8708 49.4581 32.5 49.4581Z" fill="#34A853"/>
<path d="M23.0032 35.7219C22.664 34.7044 22.4636 33.6252 22.4636 32.4998C22.4636 31.3744 22.664 30.2952 23.0032 29.2777V24.8994H17.3607C16.2044 27.1811 15.5415 29.7557 15.5415 32.4998C15.5415 35.244 16.2044 37.8186 17.3607 40.1002L21.7544 36.6777L23.0032 35.7219Z" fill="#FBBC05"/>
<path d="M32.5 22.2945C34.9975 22.2945 37.2175 23.1578 38.9904 24.8228L43.8467 19.9666C40.9021 17.2224 37.0788 15.542 32.5 15.542C25.8708 15.542 20.1513 19.3499 17.3608 24.8999L23.0033 29.2782C24.3446 25.2699 28.0908 22.2945 32.5 22.2945Z" fill="#EA4335"/>
</svg>
