<svg width="20" height="18" viewBox="0 0 20 18" fill="none" xmlns="http://www.w3.org/2000/svg">
<path fill-rule="evenodd" clip-rule="evenodd" d="M10.7111 18H13.8769C15.7124 18 17.3123 16.7508 17.7575 14.9701L19.3788 8.48507C19.6943 7.22278 18.7396 6 17.4385 6H12.5L13.8069 3.75968C14.7791 2.09303 13.5769 0 11.6474 0L10.5 0L6.63178 6.76943C6.54543 6.92052 6.50002 7.09154 6.50002 7.26556L6.50002 15.4648C6.50002 15.7992 6.66712 16.1114 6.94532 16.2969L8.49232 17.3282C9.14939 17.7662 9.92142 18 10.7111 18ZM2 6H3C4.10457 6 5 6.89543 5 8L5 15C5 16.1046 4.10457 17 3 17H2C0.895431 17 0 16.1046 0 15L0 8C0 6.89543 0.895431 6 2 6Z" fill="white"/>
</svg>
