<svg width="20" height="20" viewBox="0 0 20 20" fill="none" xmlns="http://www.w3.org/2000/svg">
<path d="M16.6667 11.6667L17.6262 10.7071C18.0168 10.3166 18.0168 9.68341 17.6262 9.29288L16.6667 8.33332" stroke="#8D8DA6" stroke-width="1.5" stroke-linecap="round" stroke-linejoin="round"/>
<path d="M17.5 10H10.8334M5.00002 16.6667C3.15907 16.6667 1.66669 15.1743 1.66669 13.3333V6.66668C1.66669 4.82573 3.15907 3.33334 5.00002 3.33334M5.00002 16.6667C6.84097 16.6667 8.33335 15.1743 8.33335 13.3333V6.66668C8.33335 4.82573 6.84097 3.33334 5.00002 3.33334M5.00002 16.6667H11.6667C13.5076 16.6667 15 15.1743 15 13.3333M5.00002 3.33334H11.6667C13.5076 3.33334 15 4.82573 15 6.66668" stroke="#8D8DA6" stroke-width="1.5" stroke-linecap="round"/>
</svg>
