<svg width="32" height="32" viewBox="0 0 32 32" fill="none" xmlns="http://www.w3.org/2000/svg">
<path d="M24.9199 12.3342C25.4751 14.076 25.5429 15.9366 25.1159 17.7142C24.6889 19.4918 23.7834 21.1186 22.4976 22.4182C21.2118 23.7178 19.5947 24.6405 17.8217 25.0864C16.0487 25.5322 14.1875 25.4842 12.4399 24.9475C12.1591 24.851 11.8541 24.851 11.5732 24.9475L8.25322 26.6675C8.15189 26.7178 8.0382 26.7377 7.92582 26.7248C7.81345 26.7119 7.70719 26.6669 7.61984 26.595C7.53249 26.5232 7.46777 26.4276 7.43347 26.3198C7.39918 26.212 7.39678 26.0966 7.42655 25.9875L8.13322 23.1342C8.17525 22.9448 8.17179 22.7482 8.12311 22.5605C8.07444 22.3728 7.98195 22.1992 7.85322 22.0542C6.64803 20.7136 5.82708 19.0726 5.47701 17.3042C5.12694 15.5359 5.26073 13.7058 5.86426 12.0072C6.46779 10.3086 7.51868 8.80435 8.90602 7.65332C10.2934 6.50229 11.9657 5.74712 13.7466 5.46751C14.4595 5.34411 15.1838 5.29939 15.9066 5.33418" stroke="white" stroke-width="2" stroke-linecap="round" stroke-linejoin="round"/>
<path d="M21.3333 5.3335V10.6668" stroke="white" stroke-width="2" stroke-linecap="round" stroke-linejoin="round"/>
<path d="M24.0001 8H18.6667" stroke="white" stroke-width="2" stroke-linecap="round" stroke-linejoin="round"/>
<path d="M11.3601 15.3198V15.3336" stroke="white" stroke-width="2" stroke-linecap="round" stroke-linejoin="round"/>
<path d="M15.3601 15.3198V15.3336" stroke="white" stroke-width="2" stroke-linecap="round" stroke-linejoin="round"/>
<path d="M19.3601 15.3198V15.3336" stroke="white" stroke-width="2" stroke-linecap="round" stroke-linejoin="round"/>
</svg>
