<svg width="15" height="17" viewBox="0 0 15 17" fill="none" xmlns="http://www.w3.org/2000/svg">
<path d="M5.91663 11.6667H1.95829V15.625M9.08329 5.33333H13.0416V1.375M1.62817 6.1275C2.07205 5.02887 2.81522 4.0768 3.77323 3.37949C4.73123 2.68218 5.86597 2.26762 7.04785 2.1829C8.22973 2.09818 9.41151 2.3467 10.4592 2.90024C11.5068 3.45378 12.3777 4.29014 12.9737 5.31423M13.3722 10.8725C12.9283 11.9711 12.1851 12.9232 11.2271 13.6205C10.2691 14.3178 9.13488 14.7324 7.953 14.8171C6.77113 14.9018 5.58893 14.6533 4.54126 14.0997C3.49359 13.5462 2.62236 12.7099 2.02633 11.6858" stroke="white" stroke-width="2" stroke-linecap="round" stroke-linejoin="round"/>
</svg>
