<svg width="19" height="16" viewBox="0 0 19 16" fill="none" xmlns="http://www.w3.org/2000/svg">
<path d="M16.8067 0.733853L0.862276 6.73303C-0.225957 7.15895 -0.219503 7.75105 0.663921 8.01508L4.64051 9.22585L6.16205 13.7765C6.34702 14.2746 6.25584 14.4721 6.79199 14.4721C7.20575 14.4721 7.38931 14.2881 7.61975 14.0685C7.7663 13.9286 8.6364 13.1034 9.60793 12.1819L13.7443 15.1632C14.5055 15.5729 15.0551 15.3606 15.2446 14.4736L17.9598 1.99182C18.2378 0.904594 17.5349 0.411435 16.8067 0.733853ZM5.26459 8.94768L14.2278 3.43121C14.6753 3.16649 15.0856 3.30881 14.7487 3.6005L7.07383 10.3556L6.775 13.4648L5.26459 8.94768Z" fill="#50505C"/>
</svg>
