<svg width="19" height="19" viewBox="0 0 19 19" fill="none" xmlns="http://www.w3.org/2000/svg">
<path fill-rule="evenodd" clip-rule="evenodd" d="M6.35967 2.51865C4.09803 3.44321 2.42719 5.51519 2.07078 8.01099H5.36044C5.43616 6.10954 5.72603 4.37435 6.1741 3.03014C6.23233 2.85544 6.29414 2.68458 6.35967 2.51865ZM11.6623 2.51866C11.7278 2.68458 11.7896 2.85544 11.8479 3.03014C12.296 4.37435 12.5858 6.10954 12.6615 8.01099H15.9512C15.5948 5.51519 13.9239 3.44321 11.6623 2.51866ZM10.6598 8.01099C10.5852 6.28849 10.3212 4.77471 9.95051 3.66259C9.72831 2.99597 9.48576 2.52865 9.26499 2.24852C9.13529 2.08393 9.04905 2.02599 9.01099 2.00672C8.97293 2.02599 8.88669 2.08393 8.75699 2.24852C8.53622 2.52865 8.29367 2.99597 8.07146 3.66259C7.70076 4.77471 7.43682 6.28849 7.36215 8.01099H10.6598ZM7.36215 10.011H10.6598C10.5852 11.7335 10.3212 13.2473 9.95051 14.3594C9.72831 15.026 9.48576 15.4933 9.26499 15.7735C9.13529 15.938 9.04905 15.996 9.01099 16.0153C8.97293 15.996 8.88669 15.938 8.75699 15.7735C8.53622 15.4933 8.29367 15.026 8.07146 14.3594C7.70076 13.2473 7.43682 11.7335 7.36215 10.011ZM5.36044 10.011H2.07078C2.42719 12.5068 4.09803 14.5788 6.35967 15.5033C6.29414 15.3374 6.23233 15.1665 6.1741 14.9918C5.72603 13.6476 5.43616 11.9124 5.36044 10.011ZM11.6623 15.5033C11.7278 15.3374 11.7896 15.1665 11.8479 14.9918C12.296 13.6476 12.5858 11.9124 12.6615 10.011H15.9512C15.5948 12.5068 13.9239 14.5788 11.6623 15.5033ZM9.01099 18.022C13.9876 18.022 18.022 13.9876 18.022 9.01099C18.022 4.03436 13.9876 0 9.01099 0C4.03436 0 0 4.03436 0 9.01099C0 13.9876 4.03436 18.022 9.01099 18.022Z" fill="#50505C"/>
</svg>
