<svg width="50" height="50" viewBox="0 0 50 50" fill="none" xmlns="http://www.w3.org/2000/svg">
<circle cx="25" cy="25" r="25" fill="#1B1B23"/>
<path fill-rule="evenodd" clip-rule="evenodd" d="M27.3571 19.0155C27.3709 19.6921 26.8337 20.2293 26.1571 20.2155L20.4525 20.0992L20.5689 25.8038C20.5827 26.4803 20.0454 27.0176 19.3689 27.0038C18.6923 26.99 18.1327 26.4303 18.1189 25.7538L17.9775 18.8242C17.9709 18.4993 18.0936 18.1903 18.3186 17.9653C18.5437 17.7403 18.8526 17.6175 19.1775 17.6242L26.1071 17.7656C26.7837 17.7794 27.3433 18.339 27.3571 19.0155ZM31.4104 23.0688C32.0869 23.0826 32.6465 23.6422 32.6603 24.3188L32.8017 31.2484C32.8155 31.9249 32.2783 32.4622 31.6017 32.4484L24.6721 32.307C23.9956 32.2932 23.4359 31.7336 23.4221 31.057C23.4083 30.3805 23.9456 29.8432 24.6221 29.857L30.3268 29.9734L30.2104 24.2688C30.1966 23.5923 30.7338 23.055 31.4104 23.0688Z" fill="white"/>
</svg>
