<svg width="24" height="24" viewBox="0 0 24 24" fill="none" xmlns="http://www.w3.org/2000/svg">
<path d="M18.75 9.11001V14.87C18.75 15.5675 18.4729 16.2365 17.9797 16.7297C17.4865 17.2229 16.8175 17.5 16.12 17.5H10.87C10.5251 17.5 10.1836 17.4319 9.86507 17.2996C9.54655 17.1673 9.25728 16.9734 9.01385 16.7291C8.77043 16.4847 8.57765 16.1947 8.44658 15.8757C8.3155 15.5567 8.2487 15.2149 8.25002 14.87V6.12001C8.25002 5.42514 8.52605 4.75873 9.0174 4.26739C9.50874 3.77604 10.1752 3.50001 10.87 3.50001H13.14C13.2531 3.49951 13.3653 3.52134 13.4699 3.56424C13.5746 3.60714 13.6698 3.67027 13.75 3.75001L18.49 8.49001C18.5723 8.57094 18.6377 8.66744 18.6823 8.77388C18.727 8.88032 18.75 8.99458 18.75 9.11001Z" stroke="#8D8D91" stroke-width="1.5" stroke-miterlimit="10" stroke-linecap="round"/>
<path d="M13.5001 3.92013V7.92013C13.4988 8.03522 13.5203 8.14942 13.5634 8.25613C13.6066 8.36284 13.6704 8.45994 13.7514 8.54178C13.8323 8.62363 13.9286 8.68861 14.0348 8.73296C14.1411 8.7773 14.255 8.80014 14.3701 8.80013H18.3701C18.4036 8.79757 18.4358 8.78566 18.4629 8.76575C18.49 8.74584 18.511 8.71874 18.5235 8.6875C18.536 8.65626 18.5395 8.62215 18.5336 8.58903C18.5277 8.55591 18.5126 8.52511 18.4901 8.50013L13.8001 3.80013C13.7771 3.77265 13.746 3.75315 13.7113 3.7444C13.6765 3.73565 13.6399 3.73811 13.6066 3.75142C13.5734 3.76472 13.5451 3.7882 13.526 3.8185C13.5069 3.8488 13.4978 3.88437 13.5001 3.92013Z" stroke="#8D8D91" stroke-width="1.5" stroke-linecap="round" stroke-linejoin="round"/>
<path d="M15.75 17.49V17.87C15.75 18.5675 15.4729 19.2365 14.9797 19.7297C14.4865 20.2229 13.8175 20.5 13.12 20.5H7.87C7.17421 20.4974 6.50783 20.2191 6.01677 19.7262C5.52571 19.2332 5.24999 18.5658 5.25 17.87V9.12C5.25263 8.42594 5.52951 7.76107 6.02029 7.27029C6.51107 6.77951 7.17594 6.50263 7.87 6.5H8.25" stroke="#8D8D91" stroke-width="1.5" stroke-miterlimit="10" stroke-linecap="round"/>
</svg>
