<svg width="19" height="14" viewBox="0 0 19 14" fill="none" xmlns="http://www.w3.org/2000/svg">
<path d="M15.2597 1.26662C14.1125 0.739231 12.8822 0.350674 11.5959 0.128131C11.5725 0.123836 11.5491 0.134569 11.537 0.156037C11.3788 0.437971 11.2035 0.805777 11.0808 1.09487C9.69728 0.887359 8.32086 0.887359 6.96571 1.09487C6.84296 0.799351 6.66134 0.437971 6.5024 0.156037C6.49034 0.135286 6.46694 0.124552 6.44351 0.128131C5.1579 0.349963 3.92764 0.73852 2.77967 1.26662C2.76974 1.27091 2.76122 1.27808 2.75556 1.28737C0.422016 4.78012 -0.21724 8.18702 0.0963577 11.5517C0.0977767 11.5681 0.107 11.5839 0.119771 11.5939C1.65938 12.7266 3.15075 13.4143 4.61443 13.8701C4.63786 13.8773 4.66268 13.8687 4.67758 13.8494C5.02382 13.3757 5.33245 12.8762 5.59708 12.351C5.6127 12.3202 5.59779 12.2837 5.56587 12.2715C5.07632 12.0855 4.61017 11.8587 4.16177 11.6011C4.1263 11.5803 4.12346 11.5295 4.15609 11.5051C4.25045 11.4343 4.34484 11.3606 4.43494 11.2862C4.45124 11.2726 4.47396 11.2697 4.49312 11.2783C7.43894 12.6258 10.6281 12.6258 13.5392 11.2783C13.5584 11.269 13.5811 11.2719 13.5981 11.2855C13.6882 11.3599 13.7826 11.4343 13.8776 11.5051C13.9103 11.5295 13.9081 11.5803 13.8727 11.6011C13.4243 11.8637 12.9581 12.0855 12.4679 12.2708C12.4359 12.283 12.4217 12.3202 12.4374 12.351C12.7077 12.8755 13.0163 13.375 13.3561 13.8487C13.3703 13.8687 13.3959 13.8773 13.4193 13.8701C14.8901 13.4143 16.3814 12.7266 17.921 11.5939C17.9345 11.5839 17.9431 11.5689 17.9445 11.5524C18.3198 7.66248 17.3158 4.28351 15.2831 1.28808C15.2782 1.27808 15.2697 1.27091 15.2597 1.26662ZM6.03699 9.50295C5.1501 9.50295 4.41932 8.68721 4.41932 7.68539C4.41932 6.68356 5.13592 5.86782 6.03699 5.86782C6.94513 5.86782 7.66883 6.69073 7.65463 7.68539C7.65463 8.68721 6.93803 9.50295 6.03699 9.50295ZM12.018 9.50295C11.1312 9.50295 10.4004 8.68721 10.4004 7.68539C10.4004 6.68356 11.117 5.86782 12.018 5.86782C12.9262 5.86782 13.6499 6.69073 13.6357 7.68539C13.6357 8.68721 12.9262 9.50295 12.018 9.50295Z" fill="#50505C"/>
</svg>
