<svg width="25" height="25" viewBox="0 0 25 25" fill="none" xmlns="http://www.w3.org/2000/svg">
<path d="M11.4583 18.75C11.4583 19.3253 11.9246 19.7917 12.4999 19.7917C13.0752 19.7917 13.5416 19.3253 13.5416 18.75C13.5416 18.1747 13.0752 17.7083 12.4999 17.7083C11.9246 17.7083 11.4583 18.1747 11.4583 18.75Z" stroke="white" stroke-width="2" stroke-linecap="round" stroke-linejoin="round"/>
<path d="M11.4583 12.5C11.4583 13.0753 11.9246 13.5417 12.4999 13.5417C13.0752 13.5417 13.5416 13.0753 13.5416 12.5C13.5416 11.9247 13.0752 11.4583 12.4999 11.4583C11.9246 11.4583 11.4583 11.9247 11.4583 12.5Z" stroke="white" stroke-width="2" stroke-linecap="round" stroke-linejoin="round"/>
<path d="M11.4583 6.25001C11.4583 6.82531 11.9246 7.29168 12.4999 7.29168C13.0752 7.29168 13.5416 6.82531 13.5416 6.25001C13.5416 5.67471 13.0752 5.20834 12.4999 5.20834C11.9246 5.20834 11.4583 5.67471 11.4583 6.25001Z" stroke="white" stroke-width="2" stroke-linecap="round" stroke-linejoin="round"/>
</svg>
