<svg width="25" height="25" viewBox="0 0 25 25" fill="none" xmlns="http://www.w3.org/2000/svg">
<path d="M20.3123 19.0103H16.6665" stroke="#111119" stroke-width="2" stroke-linecap="round" stroke-linejoin="round"/>
<path d="M18.4897 20.8333V17.1875" stroke="#111119" stroke-width="2" stroke-linecap="round" stroke-linejoin="round"/>
<path d="M12.5 10.2188C14.2259 10.2188 15.625 8.81964 15.625 7.09375C15.625 5.36786 14.2259 3.96875 12.5 3.96875C10.7741 3.96875 9.375 5.36786 9.375 7.09375C9.375 8.81964 10.7741 10.2188 12.5 10.2188Z" stroke="#111119" stroke-width="2" stroke-linecap="round" stroke-linejoin="round"/>
<path d="M4.6875 21.0312C4.6898 19.6349 5.06581 18.2646 5.77648 17.0626C6.48715 15.8606 7.50659 14.8708 8.72897 14.1958C9.95135 13.5209 11.3321 13.1854 12.7279 13.2242C14.1237 13.263 15.4837 13.6748 16.6667 14.4166" stroke="#111119" stroke-width="2" stroke-linecap="round" stroke-linejoin="round"/>
</svg>
