<svg width="19" height="18" viewBox="0 0 19 18" fill="none" xmlns="http://www.w3.org/2000/svg">
<path d="M9.02282 -0.000244141C6.57854 -0.000244141 6.27179 0.010444 5.31178 0.0541332C4.35364 0.09801 3.69964 0.249704 3.12738 0.472275C2.53544 0.702159 2.03331 1.00967 1.53305 1.51013C1.03242 2.0104 0.724917 2.51255 0.49429 3.10432C0.271163 3.67678 0.119286 4.33099 0.0761606 5.28878C0.0332227 6.24882 0.0219727 6.55577 0.0219727 9.00012C0.0219727 11.4445 0.0328479 11.7503 0.0763484 12.7103C0.120411 13.6685 0.2721 14.3225 0.494478 14.8948C0.724543 15.4868 1.03205 15.9889 1.53249 16.4892C2.03256 16.9898 2.53469 17.2981 3.12626 17.528C3.69889 17.7505 4.35308 17.9022 5.31103 17.9461C6.27104 17.9898 6.5776 18.0005 9.02169 18.0005C11.4662 18.0005 11.772 17.9898 12.732 17.9461C13.6901 17.9022 14.3449 17.7505 14.9175 17.528C15.5093 17.2981 16.0106 16.9898 16.5107 16.4892C17.0113 15.9889 17.3188 15.4868 17.5495 14.895C17.7707 14.3225 17.9226 13.6683 17.9676 12.7105C18.0107 11.7505 18.022 11.4445 18.022 9.00012C18.022 6.55577 18.0107 6.24901 17.9676 5.28897C17.9226 4.33081 17.7707 3.67678 17.5495 3.10451C17.3188 2.51255 17.0113 2.0104 16.5107 1.51013C16.0101 1.00948 15.5094 0.701972 14.9169 0.472275C14.3432 0.249704 13.6888 0.09801 12.7307 0.0541332C11.7707 0.010444 11.465 -0.000244141 9.02 -0.000244141H9.02282ZM8.21543 1.6217C8.45506 1.62132 8.72244 1.6217 9.02282 1.6217C11.4258 1.6217 11.7107 1.63032 12.6596 1.67345C13.5371 1.71358 14.0134 1.86021 14.3306 1.9834C14.7506 2.14653 15.0501 2.34154 15.3649 2.65655C15.6799 2.97156 15.8749 3.27158 16.0384 3.69159C16.1616 4.00848 16.3084 4.48475 16.3483 5.36229C16.3915 6.31107 16.4008 6.59609 16.4008 8.99806C16.4008 11.4 16.3915 11.685 16.3483 12.6338C16.3082 13.5114 16.1616 13.9876 16.0384 14.3045C15.8753 14.7245 15.6799 15.0236 15.3649 15.3384C15.0499 15.6535 14.7508 15.8485 14.3306 16.0116C14.0137 16.1353 13.5371 16.2816 12.6596 16.3217C11.7108 16.3649 11.4258 16.3742 9.02282 16.3742C6.6196 16.3742 6.33479 16.3649 5.38603 16.3217C4.50852 16.2812 4.03226 16.1346 3.71482 16.0114C3.29482 15.8483 2.99482 15.6533 2.67981 15.3383C2.36481 15.0232 2.16981 14.724 2.00631 14.3038C1.88312 13.9869 1.7363 13.5106 1.69637 12.6331C1.65324 11.6843 1.64461 11.3993 1.64461 8.99581C1.64461 6.59234 1.65324 6.30883 1.69637 5.36004C1.73649 4.4825 1.88312 4.00623 2.00631 3.68897C2.16943 3.26895 2.36481 2.96894 2.67981 2.65393C2.99482 2.33891 3.29482 2.14391 3.71482 1.9804C4.03208 1.85664 4.50852 1.71039 5.38603 1.67007C6.21629 1.63257 6.53804 1.62132 8.21543 1.61945V1.6217ZM13.827 3.11613C13.2307 3.11613 12.747 3.59934 12.747 4.1958C12.747 4.79208 13.2307 5.27585 13.827 5.27585C14.4232 5.27585 14.907 4.79208 14.907 4.1958C14.907 3.59953 14.4232 3.11576 13.827 3.11576V3.11613ZM9.02282 4.37806C6.47035 4.37806 4.40089 6.44758 4.40089 9.00012C4.40089 11.5527 6.47035 13.6212 9.02282 13.6212C11.5753 13.6212 13.644 11.5527 13.644 9.00012C13.644 6.44758 11.5751 4.37806 9.02263 4.37806H9.02282ZM9.02282 6C10.6796 6 12.0228 7.34312 12.0228 9.00012C12.0228 10.6569 10.6796 12.0002 9.02282 12.0002C7.36586 12.0002 6.02279 10.6569 6.02279 9.00012C6.02279 7.34312 7.36586 6 9.02282 6Z" fill="#50505C"/>
<path d="M9.02282 -0.000244141C6.57854 -0.000244141 6.27179 0.010444 5.31178 0.0541332C4.35364 0.09801 3.69964 0.249704 3.12738 0.472275C2.53544 0.702159 2.03331 1.00967 1.53305 1.51013C1.03242 2.0104 0.724917 2.51255 0.49429 3.10432C0.271163 3.67678 0.119286 4.33099 0.0761606 5.28878C0.0332227 6.24882 0.0219727 6.55577 0.0219727 9.00012C0.0219727 11.4445 0.0328479 11.7503 0.0763484 12.7103C0.120411 13.6685 0.2721 14.3225 0.494478 14.8948C0.724543 15.4868 1.03205 15.9889 1.53249 16.4892C2.03256 16.9898 2.53469 17.2981 3.12626 17.528C3.69889 17.7505 4.35308 17.9022 5.31103 17.9461C6.27104 17.9898 6.5776 18.0005 9.02169 18.0005C11.4662 18.0005 11.772 17.9898 12.732 17.9461C13.6901 17.9022 14.3449 17.7505 14.9175 17.528C15.5093 17.2981 16.0106 16.9898 16.5107 16.4892C17.0113 15.9889 17.3188 15.4868 17.5495 14.895C17.7707 14.3225 17.9226 13.6683 17.9676 12.7105C18.0107 11.7505 18.022 11.4445 18.022 9.00012C18.022 6.55577 18.0107 6.24901 17.9676 5.28897C17.9226 4.33081 17.7707 3.67678 17.5495 3.10451C17.3188 2.51255 17.0113 2.0104 16.5107 1.51013C16.0101 1.00948 15.5094 0.701972 14.9169 0.472275C14.3432 0.249704 13.6888 0.09801 12.7307 0.0541332C11.7707 0.010444 11.465 -0.000244141 9.02 -0.000244141H9.02282ZM8.21543 1.6217C8.45506 1.62132 8.72244 1.6217 9.02282 1.6217C11.4258 1.6217 11.7107 1.63032 12.6596 1.67345C13.5371 1.71358 14.0134 1.86021 14.3306 1.9834C14.7506 2.14653 15.0501 2.34154 15.3649 2.65655C15.6799 2.97156 15.8749 3.27158 16.0384 3.69159C16.1616 4.00848 16.3084 4.48475 16.3483 5.36229C16.3915 6.31107 16.4008 6.59609 16.4008 8.99806C16.4008 11.4 16.3915 11.685 16.3483 12.6338C16.3082 13.5114 16.1616 13.9876 16.0384 14.3045C15.8753 14.7245 15.6799 15.0236 15.3649 15.3384C15.0499 15.6535 14.7508 15.8485 14.3306 16.0116C14.0137 16.1353 13.5371 16.2816 12.6596 16.3217C11.7108 16.3649 11.4258 16.3742 9.02282 16.3742C6.6196 16.3742 6.33479 16.3649 5.38603 16.3217C4.50852 16.2812 4.03226 16.1346 3.71482 16.0114C3.29482 15.8483 2.99482 15.6533 2.67981 15.3383C2.36481 15.0232 2.16981 14.724 2.00631 14.3038C1.88312 13.9869 1.7363 13.5106 1.69637 12.6331C1.65324 11.6843 1.64461 11.3993 1.64461 8.99581C1.64461 6.59234 1.65324 6.30883 1.69637 5.36004C1.73649 4.4825 1.88312 4.00623 2.00631 3.68897C2.16943 3.26895 2.36481 2.96894 2.67981 2.65393C2.99482 2.33891 3.29482 2.14391 3.71482 1.9804C4.03208 1.85664 4.50852 1.71039 5.38603 1.67007C6.21629 1.63257 6.53804 1.62132 8.21543 1.61945V1.6217ZM13.827 3.11613C13.2307 3.11613 12.747 3.59934 12.747 4.1958C12.747 4.79208 13.2307 5.27585 13.827 5.27585C14.4232 5.27585 14.907 4.79208 14.907 4.1958C14.907 3.59953 14.4232 3.11576 13.827 3.11576V3.11613ZM9.02282 4.37806C6.47035 4.37806 4.40089 6.44758 4.40089 9.00012C4.40089 11.5527 6.47035 13.6212 9.02282 13.6212C11.5753 13.6212 13.644 11.5527 13.644 9.00012C13.644 6.44758 11.5751 4.37806 9.02263 4.37806H9.02282ZM9.02282 6C10.6796 6 12.0228 7.34312 12.0228 9.00012C12.0228 10.6569 10.6796 12.0002 9.02282 12.0002C7.36586 12.0002 6.02279 10.6569 6.02279 9.00012C6.02279 7.34312 7.36586 6 9.02282 6Z" fill="#50505C"/>
</svg>
