<svg width="18" height="18" viewBox="0 0 18 18" fill="none" xmlns="http://www.w3.org/2000/svg">
<path d="M6.07101 11.929L1.5 16.5M12.1907 11.8135L13.5975 10.4066C13.916 10.0881 14.348 9.9092 14.7984 9.9092C16.3113 9.9092 17.069 8.07997 15.9992 7.01014L10.9898 2.0008C9.92002 0.93098 8.09078 1.68867 8.09078 3.20163C8.09078 3.65203 7.91186 4.08398 7.59338 4.40246L6.18652 5.80932C5.86804 6.12779 5.43609 6.30671 4.98569 6.30671C3.47273 6.30671 2.71504 8.13595 3.78486 9.20577L8.79421 14.2151C9.86404 15.2849 11.6933 14.5272 11.6933 13.0143C11.6933 12.5639 11.8722 12.1319 12.1907 11.8135Z" stroke="white" stroke-width="1.5" stroke-linecap="round"/>
</svg>
