<svg width="34" height="34" viewBox="0 0 34 34" fill="none" xmlns="http://www.w3.org/2000/svg">
<g filter="url(#filter0_b_1_424)">
<circle cx="17" cy="17" r="17" fill="#202020" fill-opacity="0.5"/>
</g>
<path d="M21.958 16.2559H17.7434V12.0413C17.7434 11.844 17.6651 11.6549 17.5256 11.5154C17.3861 11.3759 17.1969 11.2975 16.9997 11.2975C16.8024 11.2975 16.6133 11.3759 16.4738 11.5154C16.3343 11.6549 16.2559 11.844 16.2559 12.0413V16.2559H12.0414C11.8441 16.2559 11.6549 16.3342 11.5154 16.4737C11.376 16.6132 11.2976 16.8024 11.2976 16.9996C11.2976 17.1969 11.376 17.386 11.5154 17.5255C11.6549 17.665 11.8441 17.7434 12.0414 17.7434H16.2559V21.9579C16.2559 22.1552 16.3343 22.3444 16.4738 22.4839C16.6133 22.6233 16.8024 22.7017 16.9997 22.7017C17.1969 22.7017 17.3861 22.6233 17.5256 22.4839C17.6651 22.3444 17.7434 22.1552 17.7434 21.9579V17.7434H21.958C22.1553 17.7434 22.3445 17.665 22.4839 17.5255C22.6234 17.386 22.7018 17.1969 22.7018 16.9996C22.7018 16.8024 22.6234 16.6132 22.4839 16.4737C22.3445 16.3342 22.1553 16.2559 21.958 16.2559Z" fill="white"/>
<defs>
<filter id="filter0_b_1_424" x="-19" y="-19" width="72" height="72" filterUnits="userSpaceOnUse" color-interpolation-filters="sRGB">
<feFlood flood-opacity="0" result="BackgroundImageFix"/>
<feGaussianBlur in="BackgroundImageFix" stdDeviation="9.5"/>
<feComposite in2="SourceAlpha" operator="in" result="effect1_backgroundBlur_1_424"/>
<feBlend mode="normal" in="SourceGraphic" in2="effect1_backgroundBlur_1_424" result="shape"/>
</filter>
</defs>
</svg>
