<svg width="20" height="20" viewBox="0 0 20 20" fill="none" xmlns="http://www.w3.org/2000/svg">
<path d="M13.1192 12.2141C12.8693 11.9642 12.4641 11.9642 12.2141 12.2141C11.9642 12.4641 11.9642 12.8693 12.2141 13.1192L13.1192 12.2141ZM17.5475 18.4525C17.7974 18.7025 18.2026 18.7025 18.4525 18.4525C18.7025 18.2026 18.7025 17.7974 18.4525 17.5475L17.5475 18.4525ZM8.22222 13.8044C5.13925 13.8044 2.64 11.3052 2.64 8.22222H1.36C1.36 12.0121 4.43232 15.0844 8.22222 15.0844V13.8044ZM2.64 8.22222C2.64 5.13925 5.13925 2.64 8.22222 2.64V1.36C4.43232 1.36 1.36 4.43232 1.36 8.22222H2.64ZM8.22222 2.64C11.3052 2.64 13.8044 5.13925 13.8044 8.22222H15.0844C15.0844 4.43232 12.0121 1.36 8.22222 1.36V2.64ZM13.8044 8.22222C13.8044 11.3052 11.3052 13.8044 8.22222 13.8044V15.0844C12.0121 15.0844 15.0844 12.0121 15.0844 8.22222H13.8044ZM12.2141 13.1192L17.5475 18.4525L18.4525 17.5475L13.1192 12.2141L12.2141 13.1192Z" fill="white"/>
</svg>
