<svg width="59" height="59" viewBox="0 0 59 59" fill="none" xmlns="http://www.w3.org/2000/svg">
<circle cx="29.5" cy="29.5" r="29.5" fill="#1B1B23"/>
<path d="M35.7501 31.5835C35.1347 31.5876 34.5278 31.7279 33.973 31.9945C33.4183 32.261 32.9295 32.6472 32.5418 33.1252L27.2293 30.6772C27.479 29.9124 27.479 29.0879 27.2293 28.3231L32.5418 25.8752C33.1684 26.6314 34.0421 27.1419 35.0086 27.3167C35.9751 27.4914 36.9722 27.3191 37.824 26.8303C38.6758 26.3414 39.3276 25.5673 39.6642 24.6447C40.0009 23.722 40.0008 22.7101 39.664 21.7876C39.3271 20.865 38.6753 20.091 37.8233 19.6023C36.9714 19.1136 35.9743 18.9415 35.0078 19.1164C34.0414 19.2914 33.1678 19.8021 32.5413 20.5584C31.9147 21.3147 31.5755 22.2681 31.5834 23.2502C31.5866 23.4983 31.611 23.7458 31.6563 23.9897L26.1563 26.521C25.57 25.9476 24.8274 25.5601 24.0218 25.4069C23.2161 25.2536 22.3831 25.3416 21.6272 25.6597C20.8713 25.9778 20.2261 26.5118 19.7724 27.195C19.3187 27.8782 19.0767 28.6801 19.0767 29.5002C19.0767 30.3203 19.3187 31.1221 19.7724 31.8053C20.2261 32.4885 20.8713 33.0226 21.6272 33.3406C22.3831 33.6587 23.2161 33.7467 24.0218 33.5935C24.8274 33.4402 25.57 33.0527 26.1563 32.4793L31.6563 35.0106C31.611 35.2546 31.5866 35.502 31.5834 35.7502C31.5834 36.5742 31.8278 37.3798 32.2856 38.065C32.7435 38.7502 33.3942 39.2843 34.1556 39.5997C34.9169 39.915 35.7547 39.9975 36.563 39.8368C37.3712 39.676 38.1137 39.2792 38.6964 38.6964C39.2791 38.1137 39.6759 37.3713 39.8367 36.563C39.9975 35.7548 39.915 34.917 39.5996 34.1556C39.2842 33.3943 38.7502 32.7435 38.065 32.2857C37.3798 31.8279 36.5742 31.5835 35.7501 31.5835ZM35.7501 21.1668C36.1621 21.1668 36.5649 21.289 36.9075 21.5179C37.2501 21.7469 37.5172 22.0722 37.6748 22.4529C37.8325 22.8336 37.8738 23.2525 37.7934 23.6566C37.713 24.0607 37.5146 24.4319 37.2232 24.7233C36.9319 25.0147 36.5607 25.2131 36.1565 25.2935C35.7524 25.3738 35.3335 25.3326 34.9528 25.1749C34.5722 25.0172 34.2468 24.7502 34.0179 24.4076C33.7889 24.065 33.6668 23.6622 33.6668 23.2502C33.6668 22.6976 33.8863 22.1677 34.277 21.777C34.6677 21.3863 35.1976 21.1668 35.7501 21.1668V21.1668ZM23.2501 31.5835C22.8381 31.5835 22.4353 31.4613 22.0927 31.2324C21.7501 31.0035 21.483 30.6781 21.3253 30.2974C21.1677 29.9167 21.1264 29.4978 21.2068 29.0937C21.2872 28.6896 21.4856 28.3184 21.777 28.027C22.0683 27.7357 22.4395 27.5372 22.8437 27.4569C23.2478 27.3765 23.6667 27.4177 24.0474 27.5754C24.428 27.7331 24.7534 28.0001 24.9823 28.3427C25.2112 28.6853 25.3334 29.0881 25.3334 29.5002C25.3334 30.0527 25.1139 30.5826 24.7232 30.9733C24.3325 31.364 23.8026 31.5835 23.2501 31.5835ZM35.7501 37.8335C35.3381 37.8335 34.9353 37.7113 34.5927 37.4824C34.2501 37.2535 33.983 36.9281 33.8253 36.5474C33.6677 36.1667 33.6264 35.7478 33.7068 35.3437C33.7872 34.9396 33.9856 34.5684 34.277 34.277C34.5683 33.9857 34.9395 33.7872 35.3437 33.7069C35.7478 33.6265 36.1667 33.6677 36.5474 33.8254C36.928 33.9831 37.2534 34.2501 37.4823 34.5927C37.7112 34.9353 37.8334 35.3381 37.8334 35.7502C37.8334 36.3027 37.6139 36.8326 37.2232 37.2233C36.8325 37.614 36.3026 37.8335 35.7501 37.8335Z" fill="white"/>
</svg>
