<svg width="23" height="22" viewBox="0 0 23 22" fill="none" xmlns="http://www.w3.org/2000/svg">
<path d="M1.43225 8.76746C1.10595 8.4657 1.2832 7.92019 1.72455 7.86786L7.97827 7.1264C8.15815 7.10507 8.31439 6.99174 8.39026 6.82726L11.028 1.10865C11.2141 0.70507 11.7879 0.705018 11.974 1.1086L14.6118 6.82734C14.6876 6.99182 14.8429 7.10508 15.0227 7.12641L21.2768 7.86786C21.7182 7.92019 21.8953 8.46574 21.569 8.76749L16.9457 13.0433C16.8128 13.1662 16.7534 13.3496 16.7887 13.5272L18.0158 19.7041C18.1024 20.14 17.6385 20.4771 17.2507 20.26L11.7555 17.1841C11.5974 17.0956 11.4049 17.0955 11.2468 17.184L5.75113 20.2601C5.36331 20.4772 4.8989 20.1401 4.98551 19.7041L6.21289 13.5272C6.24819 13.3495 6.18889 13.1663 6.0559 13.0433L1.43225 8.76746Z" stroke="#BAC2C8" stroke-width="1.5" stroke-linecap="round" stroke-linejoin="round"/>
</svg>
