<svg width="764" height="106" viewBox="0 0 764 106" fill="none" xmlns="http://www.w3.org/2000/svg">
<rect width="764" height="106" rx="10" fill="#13131B"/>
<path d="M392 27V33C392 35.2091 390.209 37 388 37H376C373.791 37 372 35.2091 372 33V21C372 18.7909 373.791 17 376 17H382M385.686 19.0227C385.686 19.0227 385.686 20.453 387.117 21.8833C388.547 23.3136 389.977 23.3136 389.977 23.3136M379.155 30.9896L382.158 30.5605C382.592 30.4986 382.993 30.2978 383.303 29.9884L391.408 21.8833C392.197 21.0934 392.197 19.8127 391.408 19.0227L389.977 17.5924C389.187 16.8025 387.907 16.8025 387.117 17.5924L379.012 25.6975C378.702 26.0069 378.501 26.4084 378.44 26.8417L378.01 29.8453C377.915 30.5128 378.487 31.0849 379.155 30.9896Z" stroke="white" stroke-width="1.5" stroke-linecap="round"/>
<path d="M323.226 59.2727C323.158 58.697 322.881 58.25 322.396 57.9318C321.911 57.6136 321.317 57.4545 320.612 57.4545C320.097 57.4545 319.646 57.5379 319.26 57.7045C318.877 57.8712 318.578 58.1004 318.362 58.392C318.15 58.6837 318.044 59.0152 318.044 59.3864C318.044 59.697 318.118 59.964 318.266 60.1875C318.417 60.4072 318.61 60.5909 318.845 60.7386C319.08 60.8826 319.326 61.0019 319.584 61.0966C319.841 61.1875 320.078 61.2614 320.294 61.3182L321.476 61.6364C321.779 61.7159 322.116 61.8258 322.487 61.9659C322.862 62.1061 323.22 62.2973 323.561 62.5398C323.906 62.7784 324.19 63.0852 324.413 63.4602C324.637 63.8352 324.749 64.2955 324.749 64.8409C324.749 65.4697 324.584 66.0379 324.254 66.5455C323.929 67.053 323.451 67.4564 322.822 67.7557C322.197 68.0549 321.438 68.2045 320.544 68.2045C319.711 68.2045 318.989 68.0701 318.379 67.8011C317.773 67.5322 317.296 67.1572 316.947 66.6761C316.603 66.1951 316.408 65.6364 316.362 65H317.817C317.855 65.4394 318.002 65.803 318.26 66.0909C318.521 66.375 318.851 66.5871 319.249 66.7273C319.65 66.8636 320.082 66.9318 320.544 66.9318C321.082 66.9318 321.565 66.8447 321.993 66.6705C322.421 66.4924 322.76 66.2462 323.01 65.9318C323.26 65.6136 323.385 65.2424 323.385 64.8182C323.385 64.4318 323.277 64.1174 323.061 63.875C322.845 63.6326 322.561 63.4356 322.209 63.2841C321.857 63.1326 321.476 63 321.067 62.8864L319.635 62.4773C318.726 62.2159 318.006 61.8428 317.476 61.358C316.946 60.8731 316.68 60.2386 316.68 59.4545C316.68 58.803 316.857 58.2348 317.209 57.75C317.565 57.2614 318.042 56.8826 318.641 56.6136C319.243 56.3409 319.915 56.2045 320.658 56.2045C321.408 56.2045 322.074 56.339 322.658 56.608C323.241 56.8731 323.703 57.2367 324.044 57.6989C324.389 58.161 324.571 58.6856 324.589 59.2727H323.226ZM326.884 68V59.2727H328.224V68H326.884ZM327.565 57.8182C327.304 57.8182 327.079 57.7292 326.889 57.5511C326.704 57.3731 326.611 57.1591 326.611 56.9091C326.611 56.6591 326.704 56.4451 326.889 56.267C327.079 56.089 327.304 56 327.565 56C327.827 56 328.05 56.089 328.236 56.267C328.425 56.4451 328.52 56.6591 328.52 56.9091C328.52 57.1591 328.425 57.3731 328.236 57.5511C328.05 57.7292 327.827 57.8182 327.565 57.8182ZM330.43 68V66.9773L335.385 60.6136V60.5227H330.589V59.2727H337.112V60.3409L332.294 66.6591V66.75H337.271V68H330.43ZM342.746 68.1818C341.905 68.1818 341.179 67.9962 340.57 67.625C339.964 67.25 339.496 66.7273 339.166 66.0568C338.84 65.3826 338.678 64.5985 338.678 63.7045C338.678 62.8106 338.84 62.0227 339.166 61.3409C339.496 60.6553 339.954 60.1212 340.541 59.7386C341.132 59.3523 341.821 59.1591 342.609 59.1591C343.064 59.1591 343.513 59.2348 343.956 59.3864C344.399 59.5379 344.803 59.7841 345.166 60.125C345.53 60.4621 345.82 60.9091 346.036 61.4659C346.251 62.0227 346.359 62.7083 346.359 63.5227V64.0909H339.632V62.9318H344.996C344.996 62.4394 344.897 62 344.7 61.6136C344.507 61.2273 344.231 60.9223 343.871 60.6989C343.515 60.4754 343.094 60.3636 342.609 60.3636C342.075 60.3636 341.613 60.4962 341.223 60.7614C340.837 61.0227 340.539 61.3636 340.331 61.7841C340.123 62.2045 340.018 62.6553 340.018 63.1364V63.9091C340.018 64.5682 340.132 65.1269 340.359 65.5852C340.59 66.0398 340.911 66.3864 341.32 66.625C341.729 66.8598 342.204 66.9773 342.746 66.9773C343.098 66.9773 343.416 66.928 343.7 66.8295C343.988 66.7273 344.236 66.5758 344.445 66.375C344.653 66.1705 344.814 65.9167 344.928 65.6136L346.223 65.9773C346.087 66.4167 345.857 66.803 345.536 67.1364C345.214 67.4659 344.816 67.7235 344.342 67.9091C343.869 68.0909 343.337 68.1818 342.746 68.1818ZM356.967 56.3636V68H355.558V57.8409H355.49L352.649 59.7273V58.2955L355.558 56.3636H356.967ZM364.018 56.2045C364.496 56.2083 364.973 56.2992 365.45 56.4773C365.928 56.6553 366.363 56.9508 366.757 57.3636C367.151 57.7727 367.467 58.3314 367.706 59.0398C367.945 59.7481 368.064 60.6364 368.064 61.7045C368.064 62.7386 367.965 63.6572 367.768 64.4602C367.575 65.2595 367.295 65.9337 366.928 66.483C366.564 67.0322 366.121 67.4489 365.598 67.733C365.079 68.017 364.492 68.1591 363.837 68.1591C363.185 68.1591 362.604 68.0303 362.092 67.7727C361.585 67.5114 361.168 67.1496 360.842 66.6875C360.52 66.2216 360.314 65.6818 360.223 65.0682H361.609C361.734 65.6023 361.982 66.0436 362.354 66.392C362.729 66.7367 363.223 66.9091 363.837 66.9091C364.734 66.9091 365.443 66.517 365.962 65.733C366.484 64.9489 366.746 63.8409 366.746 62.4091H366.655C366.443 62.7273 366.191 63.0019 365.899 63.233C365.607 63.464 365.284 63.642 364.928 63.767C364.571 63.892 364.193 63.9545 363.791 63.9545C363.125 63.9545 362.513 63.7898 361.956 63.4602C361.403 63.1269 360.96 62.6705 360.626 62.0909C360.297 61.5076 360.132 60.8409 360.132 60.0909C360.132 59.3788 360.291 58.7273 360.609 58.1364C360.931 57.5417 361.382 57.0682 361.962 56.7159C362.545 56.3636 363.231 56.1932 364.018 56.2045ZM364.018 57.4545C363.541 57.4545 363.111 57.5739 362.729 57.8125C362.35 58.0473 362.049 58.3655 361.825 58.767C361.606 59.1648 361.496 59.6061 361.496 60.0909C361.496 60.5758 361.602 61.017 361.814 61.4148C362.03 61.8087 362.323 62.1231 362.695 62.358C363.07 62.589 363.496 62.7045 363.973 62.7045C364.333 62.7045 364.668 62.6345 364.979 62.4943C365.289 62.3504 365.56 62.1553 365.791 61.9091C366.026 61.6591 366.21 61.3769 366.342 61.0625C366.475 60.7443 366.541 60.4129 366.541 60.0682C366.541 59.6136 366.431 59.1875 366.212 58.7898C365.996 58.392 365.696 58.0701 365.314 57.8239C364.935 57.5777 364.503 57.4545 364.018 57.4545ZM370.298 68V66.9773L374.139 62.7727C374.59 62.2803 374.961 61.8523 375.253 61.4886C375.545 61.1212 375.76 60.7765 375.901 60.4545C376.045 60.1288 376.116 59.7879 376.116 59.4318C376.116 59.0227 376.018 58.6686 375.821 58.3693C375.628 58.0701 375.363 57.839 375.026 57.6761C374.688 57.5133 374.31 57.4318 373.889 57.4318C373.442 57.4318 373.052 57.5246 372.719 57.7102C372.389 57.892 372.134 58.1477 371.952 58.4773C371.774 58.8068 371.685 59.1932 371.685 59.6364H370.344C370.344 58.9545 370.501 58.3561 370.815 57.8409C371.13 57.3258 371.558 56.9242 372.099 56.6364C372.645 56.3485 373.257 56.2045 373.935 56.2045C374.616 56.2045 375.221 56.3485 375.747 56.6364C376.274 56.9242 376.687 57.3125 376.986 57.8011C377.285 58.2898 377.435 58.8333 377.435 59.4318C377.435 59.8598 377.357 60.2784 377.202 60.6875C377.05 61.0928 376.785 61.5455 376.406 62.0455C376.031 62.5417 375.51 63.1477 374.844 63.8636L372.23 66.6591V66.75H377.639V68H370.298ZM383.781 68.1591C382.925 68.1591 382.196 67.9261 381.594 67.4602C380.991 66.9905 380.531 66.3106 380.213 65.4205C379.895 64.5265 379.736 63.447 379.736 62.1818C379.736 60.9242 379.895 59.8504 380.213 58.9602C380.535 58.0663 380.997 57.3845 381.599 56.9148C382.205 56.4413 382.933 56.2045 383.781 56.2045C384.63 56.2045 385.355 56.4413 385.957 56.9148C386.563 57.3845 387.026 58.0663 387.344 58.9602C387.666 59.8504 387.827 60.9242 387.827 62.1818C387.827 63.447 387.668 64.5265 387.349 65.4205C387.031 66.3106 386.571 66.9905 385.969 67.4602C385.366 67.9261 384.637 68.1591 383.781 68.1591ZM383.781 66.9091C384.63 66.9091 385.289 66.5 385.759 65.6818C386.228 64.8636 386.463 63.697 386.463 62.1818C386.463 61.1742 386.355 60.3163 386.139 59.608C385.927 58.8996 385.62 58.3598 385.219 57.9886C384.821 57.6174 384.342 57.4318 383.781 57.4318C382.94 57.4318 382.283 57.8466 381.81 58.6761C381.336 59.5019 381.099 60.6705 381.099 62.1818C381.099 63.1894 381.205 64.0455 381.418 64.75C381.63 65.4545 381.935 65.9905 382.332 66.358C382.734 66.7254 383.217 66.9091 383.781 66.9091ZM396.827 65.9091L390.418 59.5L391.281 58.6364L397.69 65.0455L396.827 65.9091ZM391.281 65.9091L390.418 65.0455L396.827 58.6364L397.69 59.5L391.281 65.9091ZM404.464 68.1591C403.714 68.1591 403.046 68.0303 402.459 67.7727C401.875 67.5152 401.411 67.1572 401.067 66.6989C400.726 66.2367 400.54 65.7008 400.51 65.0909H401.942C401.972 65.4659 402.101 65.7898 402.328 66.0625C402.555 66.3314 402.853 66.5398 403.22 66.6875C403.588 66.8352 403.995 66.9091 404.442 66.9091C404.942 66.9091 405.385 66.822 405.771 66.6477C406.158 66.4735 406.461 66.2311 406.68 65.9205C406.9 65.6098 407.01 65.25 407.01 64.8409C407.01 64.4129 406.904 64.036 406.692 63.7102C406.48 63.3807 406.169 63.1231 405.76 62.9375C405.351 62.7519 404.851 62.6591 404.26 62.6591H403.328V61.4091H404.26C404.722 61.4091 405.127 61.3258 405.476 61.1591C405.828 60.9924 406.103 60.7576 406.3 60.4545C406.5 60.1515 406.601 59.7955 406.601 59.3864C406.601 58.9924 406.514 58.6496 406.339 58.358C406.165 58.0663 405.919 57.839 405.601 57.6761C405.286 57.5133 404.915 57.4318 404.487 57.4318C404.086 57.4318 403.707 57.5057 403.351 57.6534C402.999 57.7973 402.711 58.0076 402.487 58.2841C402.264 58.5568 402.143 58.8864 402.124 59.2727H400.76C400.783 58.6629 400.966 58.1288 401.311 57.6705C401.656 57.2083 402.107 56.8485 402.663 56.5909C403.224 56.3333 403.839 56.2045 404.51 56.2045C405.23 56.2045 405.847 56.3504 406.362 56.642C406.877 56.9299 407.273 57.3106 407.55 57.7841C407.826 58.2576 407.964 58.7689 407.964 59.3182C407.964 59.9735 407.792 60.5322 407.447 60.9943C407.107 61.4564 406.643 61.7765 406.055 61.9545V62.0455C406.79 62.1667 407.364 62.4792 407.777 62.983C408.19 63.483 408.396 64.1023 408.396 64.8409C408.396 65.4735 408.224 66.0417 407.879 66.5455C407.538 67.0455 407.072 67.4394 406.482 67.7273C405.891 68.0152 405.218 68.1591 404.464 68.1591ZM414.516 68.1591C413.66 68.1591 412.93 67.9261 412.328 67.4602C411.726 66.9905 411.266 66.3106 410.947 65.4205C410.629 64.5265 410.47 63.447 410.47 62.1818C410.47 60.9242 410.629 59.8504 410.947 58.9602C411.269 58.0663 411.732 57.3845 412.334 56.9148C412.94 56.4413 413.667 56.2045 414.516 56.2045C415.364 56.2045 416.089 56.4413 416.692 56.9148C417.298 57.3845 417.76 58.0663 418.078 58.9602C418.4 59.8504 418.561 60.9242 418.561 62.1818C418.561 63.447 418.402 64.5265 418.084 65.4205C417.766 66.3106 417.305 66.9905 416.703 67.4602C416.101 67.9261 415.372 68.1591 414.516 68.1591ZM414.516 66.9091C415.364 66.9091 416.023 66.5 416.493 65.6818C416.963 64.8636 417.197 63.697 417.197 62.1818C417.197 61.1742 417.089 60.3163 416.874 59.608C416.661 58.8996 416.355 58.3598 415.953 57.9886C415.555 57.6174 415.076 57.4318 414.516 57.4318C413.675 57.4318 413.018 57.8466 412.544 58.6761C412.071 59.5019 411.834 60.6705 411.834 62.1818C411.834 63.1894 411.94 64.0455 412.152 64.75C412.364 65.4545 412.669 65.9905 413.067 66.358C413.468 66.7254 413.951 66.9091 414.516 66.9091ZM424.516 68.1591C423.66 68.1591 422.93 67.9261 422.328 67.4602C421.726 66.9905 421.266 66.3106 420.947 65.4205C420.629 64.5265 420.47 63.447 420.47 62.1818C420.47 60.9242 420.629 59.8504 420.947 58.9602C421.269 58.0663 421.732 57.3845 422.334 56.9148C422.94 56.4413 423.667 56.2045 424.516 56.2045C425.364 56.2045 426.089 56.4413 426.692 56.9148C427.298 57.3845 427.76 58.0663 428.078 58.9602C428.4 59.8504 428.561 60.9242 428.561 62.1818C428.561 63.447 428.402 64.5265 428.084 65.4205C427.766 66.3106 427.305 66.9905 426.703 67.4602C426.101 67.9261 425.372 68.1591 424.516 68.1591ZM424.516 66.9091C425.364 66.9091 426.023 66.5 426.493 65.6818C426.963 64.8636 427.197 63.697 427.197 62.1818C427.197 61.1742 427.089 60.3163 426.874 59.608C426.661 58.8996 426.355 58.3598 425.953 57.9886C425.555 57.6174 425.076 57.4318 424.516 57.4318C423.675 57.4318 423.018 57.8466 422.544 58.6761C422.071 59.5019 421.834 60.6705 421.834 62.1818C421.834 63.1894 421.94 64.0455 422.152 64.75C422.364 65.4545 422.669 65.9905 423.067 66.358C423.468 66.7254 423.951 66.9091 424.516 66.9091ZM430.743 71.2727V59.2727H432.038V60.6591H432.197C432.296 60.5076 432.432 60.3144 432.607 60.0795C432.785 59.8409 433.038 59.6288 433.368 59.4432C433.701 59.2538 434.152 59.1591 434.72 59.1591C435.455 59.1591 436.103 59.3428 436.663 59.7102C437.224 60.0777 437.661 60.5985 437.976 61.2727C438.29 61.947 438.447 62.7424 438.447 63.6591C438.447 64.5833 438.29 65.3845 437.976 66.0625C437.661 66.7367 437.226 67.2595 436.669 67.6307C436.112 67.9981 435.47 68.1818 434.743 68.1818C434.182 68.1818 433.733 68.089 433.396 67.9034C433.059 67.714 432.8 67.5 432.618 67.2614C432.436 67.0189 432.296 66.8182 432.197 66.6591H432.084V71.2727H430.743ZM432.061 63.6364C432.061 64.2955 432.158 64.8769 432.351 65.3807C432.544 65.8807 432.826 66.2727 433.197 66.5568C433.569 66.8371 434.023 66.9773 434.561 66.9773C435.122 66.9773 435.589 66.8295 435.964 66.5341C436.343 66.2348 436.627 65.8333 436.817 65.3295C437.01 64.822 437.107 64.2576 437.107 63.6364C437.107 63.0227 437.012 62.4697 436.822 61.9773C436.637 61.4811 436.355 61.089 435.976 60.8011C435.601 60.5095 435.129 60.3636 434.561 60.3636C434.016 60.3636 433.557 60.5019 433.186 60.7784C432.815 61.0511 432.535 61.4337 432.345 61.9261C432.156 62.4148 432.061 62.9848 432.061 63.6364ZM441.134 59.2727L443.224 62.8409L445.315 59.2727H446.861L444.043 63.6364L446.861 68H445.315L443.224 64.6136L441.134 68H439.588L442.361 63.6364L439.588 59.2727H441.134ZM308.887 75.3636H310.296V83.6818C310.296 84.4242 310.16 85.0549 309.887 85.5739C309.614 86.0928 309.23 86.4867 308.734 86.7557C308.237 87.0246 307.652 87.1591 306.978 87.1591C306.342 87.1591 305.775 87.0436 305.279 86.8125C304.783 86.5777 304.393 86.2443 304.109 85.8125C303.825 85.3807 303.683 84.8674 303.683 84.2727H305.069C305.069 84.6023 305.15 84.8902 305.313 85.1364C305.48 85.3788 305.707 85.5682 305.995 85.7045C306.283 85.8409 306.611 85.9091 306.978 85.9091C307.383 85.9091 307.728 85.8239 308.012 85.6534C308.296 85.483 308.512 85.233 308.66 84.9034C308.811 84.5701 308.887 84.1629 308.887 83.6818V75.3636ZM313.12 87V75.3636H317.052C317.965 75.3636 318.711 75.5284 319.29 75.858C319.874 76.1837 320.306 76.625 320.586 77.1818C320.866 77.7386 321.006 78.3598 321.006 79.0455C321.006 79.7311 320.866 80.3542 320.586 80.9148C320.309 81.4754 319.881 81.9223 319.302 82.2557C318.722 82.5852 317.98 82.75 317.075 82.75H314.256V81.5H317.029C317.654 81.5 318.156 81.392 318.535 81.1761C318.914 80.9602 319.188 80.6686 319.359 80.3011C319.533 79.9299 319.62 79.5114 319.62 79.0455C319.62 78.5795 319.533 78.1629 319.359 77.7955C319.188 77.428 318.912 77.1402 318.529 76.9318C318.147 76.7197 317.639 76.6136 317.006 76.6136H314.529V87H313.12ZM331.231 79C331.106 78.6174 330.941 78.2746 330.737 77.9716C330.536 77.6648 330.295 77.4034 330.015 77.1875C329.738 76.9716 329.424 76.8068 329.072 76.6932C328.719 76.5795 328.333 76.5227 327.913 76.5227C327.223 76.5227 326.596 76.7008 326.032 77.0568C325.468 77.4129 325.019 77.9375 324.685 78.6307C324.352 79.3239 324.185 80.1742 324.185 81.1818C324.185 82.1894 324.354 83.0398 324.691 83.733C325.028 84.4261 325.485 84.9508 326.06 85.3068C326.636 85.6629 327.284 85.8409 328.004 85.8409C328.67 85.8409 329.257 85.6989 329.765 85.4148C330.276 85.1269 330.674 84.7216 330.958 84.1989C331.246 83.6723 331.39 83.053 331.39 82.3409L331.822 82.4318H328.322V81.1818H332.754V82.4318C332.754 83.3902 332.549 84.2235 332.14 84.9318C331.735 85.6402 331.174 86.1894 330.458 86.5795C329.746 86.9659 328.928 87.1591 328.004 87.1591C326.973 87.1591 326.068 86.9167 325.288 86.4318C324.511 85.947 323.905 85.2576 323.469 84.3636C323.038 83.4697 322.822 82.4091 322.822 81.1818C322.822 80.2614 322.945 79.4337 323.191 78.6989C323.441 77.9602 323.793 77.3314 324.248 76.8125C324.702 76.2936 325.24 75.8958 325.862 75.6193C326.483 75.3428 327.166 75.2045 327.913 75.2045C328.526 75.2045 329.098 75.2973 329.629 75.483C330.163 75.6648 330.638 75.9242 331.055 76.2614C331.475 76.5947 331.826 76.9943 332.106 77.4602C332.386 77.9223 332.579 78.4356 332.685 79H331.231ZM336.985 85.4091L336.894 86.0227C336.83 86.4545 336.731 86.9167 336.599 87.4091C336.47 87.9015 336.335 88.3655 336.195 88.8011C336.055 89.2367 335.94 89.5833 335.849 89.8409H334.826C334.875 89.5985 334.94 89.2784 335.019 88.8807C335.099 88.483 335.178 88.0379 335.258 87.5455C335.341 87.0568 335.409 86.5568 335.462 86.0455L335.531 85.4091H336.985ZM344.151 87V75.3636H348.083C348.996 75.3636 349.742 75.5284 350.322 75.858C350.905 76.1837 351.337 76.625 351.617 77.1818C351.897 77.7386 352.038 78.3598 352.038 79.0455C352.038 79.7311 351.897 80.3542 351.617 80.9148C351.341 81.4754 350.913 81.9223 350.333 82.2557C349.754 82.5852 349.011 82.75 348.106 82.75H345.288V81.5H348.06C348.685 81.5 349.187 81.392 349.566 81.1761C349.945 80.9602 350.219 80.6686 350.39 80.3011C350.564 79.9299 350.651 79.5114 350.651 79.0455C350.651 78.5795 350.564 78.1629 350.39 77.7955C350.219 77.428 349.943 77.1402 349.56 76.9318C349.178 76.7197 348.67 76.6136 348.038 76.6136H345.56V87H344.151ZM363.535 75.3636V87H362.171L355.83 77.8636H355.717V87H354.308V75.3636H355.671L362.035 84.5227H362.148V75.3636H363.535ZM374.309 79C374.184 78.6174 374.019 78.2746 373.815 77.9716C373.614 77.6648 373.373 77.4034 373.093 77.1875C372.817 76.9716 372.502 76.8068 372.15 76.6932C371.798 76.5795 371.411 76.5227 370.991 76.5227C370.301 76.5227 369.674 76.7008 369.11 77.0568C368.546 77.4129 368.097 77.9375 367.763 78.6307C367.43 79.3239 367.263 80.1742 367.263 81.1818C367.263 82.1894 367.432 83.0398 367.769 83.733C368.106 84.4261 368.563 84.9508 369.138 85.3068C369.714 85.6629 370.362 85.8409 371.082 85.8409C371.748 85.8409 372.335 85.6989 372.843 85.4148C373.354 85.1269 373.752 84.7216 374.036 84.1989C374.324 83.6723 374.468 83.053 374.468 82.3409L374.9 82.4318H371.4V81.1818H375.832V82.4318C375.832 83.3902 375.627 84.2235 375.218 84.9318C374.813 85.6402 374.252 86.1894 373.536 86.5795C372.824 86.9659 372.006 87.1591 371.082 87.1591C370.051 87.1591 369.146 86.9167 368.366 86.4318C367.589 85.947 366.983 85.2576 366.548 84.3636C366.116 83.4697 365.9 82.4091 365.9 81.1818C365.9 80.2614 366.023 79.4337 366.269 78.6989C366.519 77.9602 366.871 77.3314 367.326 76.8125C367.781 76.2936 368.318 75.8958 368.94 75.6193C369.561 75.3428 370.245 75.2045 370.991 75.2045C371.604 75.2045 372.176 75.2973 372.707 75.483C373.241 75.6648 373.716 75.9242 374.133 76.2614C374.553 76.5947 374.904 76.9943 375.184 77.4602C375.464 77.9223 375.657 78.4356 375.763 79H374.309ZM380.063 85.4091L379.972 86.0227C379.908 86.4545 379.809 86.9167 379.677 87.4091C379.548 87.9015 379.414 88.3655 379.273 88.8011C379.133 89.2367 379.018 89.5833 378.927 89.8409H377.904C377.953 89.5985 378.018 89.2784 378.097 88.8807C378.177 88.483 378.256 88.0379 378.336 87.5455C378.419 87.0568 378.487 86.5568 378.54 86.0455L378.609 85.4091H380.063ZM395.184 79C395.059 78.6174 394.894 78.2746 394.69 77.9716C394.489 77.6648 394.248 77.4034 393.968 77.1875C393.692 76.9716 393.377 76.8068 393.025 76.6932C392.673 76.5795 392.286 76.5227 391.866 76.5227C391.176 76.5227 390.549 76.7008 389.985 77.0568C389.421 77.4129 388.972 77.9375 388.638 78.6307C388.305 79.3239 388.138 80.1742 388.138 81.1818C388.138 82.1894 388.307 83.0398 388.644 83.733C388.981 84.4261 389.438 84.9508 390.013 85.3068C390.589 85.6629 391.237 85.8409 391.957 85.8409C392.623 85.8409 393.21 85.6989 393.718 85.4148C394.229 85.1269 394.627 84.7216 394.911 84.1989C395.199 83.6723 395.343 83.053 395.343 82.3409L395.775 82.4318H392.275V81.1818H396.707V82.4318C396.707 83.3902 396.502 84.2235 396.093 84.9318C395.688 85.6402 395.127 86.1894 394.411 86.5795C393.699 86.9659 392.881 87.1591 391.957 87.1591C390.926 87.1591 390.021 86.9167 389.241 86.4318C388.464 85.947 387.858 85.2576 387.423 84.3636C386.991 83.4697 386.775 82.4091 386.775 81.1818C386.775 80.2614 386.898 79.4337 387.144 78.6989C387.394 77.9602 387.746 77.3314 388.201 76.8125C388.656 76.2936 389.193 75.8958 389.815 75.6193C390.436 75.3428 391.12 75.2045 391.866 75.2045C392.479 75.2045 393.051 75.2973 393.582 75.483C394.116 75.6648 394.591 75.9242 395.008 76.2614C395.428 76.5947 395.779 76.9943 396.059 77.4602C396.339 77.9223 396.532 78.4356 396.638 79H395.184ZM400.529 75.3636V87H399.12V75.3636H400.529ZM403.354 87V75.3636H410.332V76.6136H404.763V80.5455H409.809V81.7955H404.763V87H403.354ZM413.923 85.4091L413.832 86.0227C413.767 86.4545 413.669 86.9167 413.536 87.4091C413.407 87.9015 413.273 88.3655 413.133 88.8011C412.993 89.2367 412.877 89.5833 412.786 89.8409H411.763C411.813 89.5985 411.877 89.2784 411.957 88.8807C412.036 88.483 412.116 88.0379 412.195 87.5455C412.279 87.0568 412.347 86.5568 412.4 86.0455L412.468 85.4091H413.923ZM425.543 75.3636H426.952V83.6818C426.952 84.4242 426.816 85.0549 426.543 85.5739C426.271 86.0928 425.886 86.4867 425.39 86.7557C424.894 87.0246 424.308 87.1591 423.634 87.1591C422.998 87.1591 422.432 87.0436 421.935 86.8125C421.439 86.5777 421.049 86.2443 420.765 85.8125C420.481 85.3807 420.339 84.8674 420.339 84.2727H421.725C421.725 84.6023 421.807 84.8902 421.969 85.1364C422.136 85.3788 422.363 85.5682 422.651 85.7045C422.939 85.8409 423.267 85.9091 423.634 85.9091C424.04 85.9091 424.384 85.8239 424.668 85.6534C424.952 85.483 425.168 85.233 425.316 84.9034C425.468 84.5701 425.543 84.1629 425.543 83.6818V75.3636ZM429.776 87V75.3636H433.708C434.621 75.3636 435.367 75.5284 435.947 75.858C436.53 76.1837 436.962 76.625 437.242 77.1818C437.522 77.7386 437.663 78.3598 437.663 79.0455C437.663 79.7311 437.522 80.3542 437.242 80.9148C436.966 81.4754 436.538 81.9223 435.958 82.2557C435.379 82.5852 434.636 82.75 433.731 82.75H430.913V81.5H433.685C434.31 81.5 434.812 81.392 435.191 81.1761C435.57 80.9602 435.844 80.6686 436.015 80.3011C436.189 79.9299 436.276 79.5114 436.276 79.0455C436.276 78.5795 436.189 78.1629 436.015 77.7955C435.844 77.428 435.568 77.1402 435.185 76.9318C434.803 76.7197 434.295 76.6136 433.663 76.6136H431.185V87H429.776ZM439.933 87V75.3636H446.955V76.6136H441.342V80.5455H446.592V81.7955H441.342V85.75H447.046V87H439.933ZM457.45 79C457.325 78.6174 457.16 78.2746 456.955 77.9716C456.754 77.6648 456.514 77.4034 456.234 77.1875C455.957 76.9716 455.643 76.8068 455.29 76.6932C454.938 76.5795 454.552 76.5227 454.131 76.5227C453.442 76.5227 452.815 76.7008 452.251 77.0568C451.686 77.4129 451.237 77.9375 450.904 78.6307C450.571 79.3239 450.404 80.1742 450.404 81.1818C450.404 82.1894 450.573 83.0398 450.91 83.733C451.247 84.4261 451.703 84.9508 452.279 85.3068C452.855 85.6629 453.503 85.8409 454.222 85.8409C454.889 85.8409 455.476 85.6989 455.984 85.4148C456.495 85.1269 456.893 84.7216 457.177 84.1989C457.465 83.6723 457.609 83.053 457.609 82.3409L458.04 82.4318H454.54V81.1818H458.972V82.4318C458.972 83.3902 458.768 84.2235 458.359 84.9318C457.953 85.6402 457.393 86.1894 456.677 86.5795C455.965 86.9659 455.147 87.1591 454.222 87.1591C453.192 87.1591 452.287 86.9167 451.506 86.4318C450.73 85.947 450.124 85.2576 449.688 84.3636C449.256 83.4697 449.04 82.4091 449.04 81.1818C449.04 80.2614 449.164 79.4337 449.41 78.6989C449.66 77.9602 450.012 77.3314 450.467 76.8125C450.921 76.2936 451.459 75.8958 452.08 75.6193C452.701 75.3428 453.385 75.2045 454.131 75.2045C454.745 75.2045 455.317 75.2973 455.847 75.483C456.381 75.6648 456.857 75.9242 457.273 76.2614C457.694 76.5947 458.044 76.9943 458.325 77.4602C458.605 77.9223 458.798 78.4356 458.904 79H457.45Z" fill="white" fill-opacity="0.5"/>
</svg>
