<svg width="196" height="139" viewBox="0 0 196 139" fill="none" xmlns="http://www.w3.org/2000/svg">
<path fill-rule="evenodd" clip-rule="evenodd" d="M93.073 0.187197C67.9431 1.47852 44.9615 12.6248 30.7061 30.4356C18.0341 46.268 13.6935 65.5903 18.5235 84.6639C21.5575 96.6438 29.0181 108.555 39.0751 117.476L41.8023 119.895L41.7079 121.055C41.318 125.854 39.4607 131.23 36.8896 135.001C36.3196 135.837 35.8531 136.543 35.8531 136.57C35.8531 136.597 36.3795 136.576 37.0226 136.525C42.9288 136.053 49.3524 133.531 54.1607 129.797L55.4273 128.813L57.6134 129.878C73.2151 137.481 91.587 140.471 109.474 138.32C135.941 135.138 159.019 120.894 171.003 100.347C181.49 82.366 182.199 60.6678 172.903 42.2531C164.175 24.9657 147.838 11.5011 127.36 4.71896C119.412 2.08706 111.516 0.653053 102.346 0.176815C97.7781 -0.0606406 97.897 -0.0606412 93.073 0.187197ZM3.99887 18.3083C3.57007 18.5575 3.01874 19.0273 2.77371 19.3524C2.34022 19.9272 2.32663 20.3365 2.26783 34.3734L2.20746 48.8036L3.28984 47.5136C4.5825 45.9734 6.31332 44.4002 8.06419 43.1738L9.34504 42.2766V31.3083V20.34L8.83849 19.5948C7.67838 17.8875 5.65017 17.3483 3.99887 18.3083ZM188.424 18.3472C188.011 18.6233 187.445 19.1848 187.166 19.5948L186.66 20.34V31.3083V42.2766L187.978 43.1983C189.667 44.3794 191.842 46.3736 192.939 47.746L193.797 48.8209L193.737 34.3822C193.678 20.3369 193.664 19.9272 193.231 19.3509C192.116 17.8683 189.849 17.3949 188.424 18.3472ZM57.0509 30.8941C55.2007 31.132 53.7203 31.6215 51.6379 32.6838C49.5137 33.7672 47.6403 35.4341 45.3517 38.2771C35.5653 50.434 31.9106 64.7001 34.8637 79.2161C36.2737 86.1467 39.464 93.0054 44.2627 99.4213C48.4474 105.016 52.2135 107.551 57.2786 108.181C59.7608 108.489 135.886 108.493 138.6 108.184C142.49 107.742 145.947 105.983 148.696 103.045C154.741 96.5846 159.445 87.5759 161.139 79.2161C163.375 68.1794 161.871 57.4896 156.659 47.3855C154.383 42.9737 150.309 37.3777 147.557 34.8836C145.116 32.6716 141.962 31.2637 138.59 30.8804C136.227 30.6118 59.1442 30.6249 57.0509 30.8941ZM16.5508 42.8926C7.04642 46.7752 1.64032 53.7924 0.226705 64.0819C-0.116787 66.5812 -0.059984 72.9974 0.329618 75.7179C1.52805 84.088 5.27505 90.0342 11.7591 93.8553C13.6006 94.9408 17.1164 96.5305 18.3293 96.8263L18.9601 96.9802L18.4133 95.9025C16.1924 91.5272 13.9156 83.3607 13.0936 76.8223C12.72 73.8525 12.7227 65.2714 13.0978 62.2436C13.8922 55.8308 16.2113 47.4949 18.3979 43.1919C18.7603 42.4789 18.8407 42.144 18.6489 42.1467C18.4937 42.1489 17.5496 42.4846 16.5508 42.8926ZM177.556 43.0815C178.936 45.7624 181.13 52.4439 181.968 56.5252C182.911 61.1149 183.174 63.9348 183.18 69.533C183.186 75.3556 182.911 78.1439 181.855 82.988C180.888 87.4233 178.952 93.2693 177.543 96.0079C177.253 96.5716 177.17 96.9233 177.328 96.9233C177.876 96.9233 181.747 95.2595 183.589 94.2319C187.88 91.8379 190.979 88.6357 193.08 84.4231C194.13 82.3174 194.784 80.3948 195.381 77.6566C195.955 75.0216 196.202 67.3075 195.807 64.3416C194.53 54.7597 189.84 47.9362 181.762 43.9085C180.269 43.1639 177.685 42.1427 177.294 42.1427C177.172 42.1427 177.29 42.5653 177.556 43.0815ZM65.6863 55.4102C62.7455 55.8392 59.4661 57.5974 57.2757 59.9194C54.6068 62.7486 53.7207 65.8539 55.0786 67.6192C56.2891 69.1928 57.2458 69.2763 61.8043 68.2063C64.4995 67.5737 65.3161 67.4743 67.8188 67.4743C70.3175 67.4743 71.1423 67.5743 73.8332 68.2039C77.378 69.0333 78.4258 69.1003 79.4677 68.5639C83.2447 66.6197 80.1295 59.7911 74.1168 56.8343C71.2043 55.402 68.6728 54.9744 65.6863 55.4102ZM125.628 55.5142C122.09 56.1486 118.163 58.7339 116.325 61.6375C115.228 63.3693 114.932 64.2232 114.933 65.6451C114.934 67.6786 116.246 68.9671 118.273 68.9269C118.825 68.916 120.308 68.6554 121.57 68.3479C126.67 67.1045 129.697 67.1005 134.757 68.3302C137.366 68.9642 139.078 69.0852 139.816 68.6876C140.087 68.5418 140.586 68.0612 140.926 67.6192C142.729 65.2751 140.452 60.5885 136.124 57.7351C134.276 56.5173 132.682 55.878 130.525 55.4906C128.492 55.1255 127.775 55.129 125.628 55.5142ZM104.031 76.4079C103.733 76.5233 103.004 77.0669 102.412 77.616C100.943 78.9791 99.7867 79.4633 98.0024 79.4633C96.2056 79.4633 95.1974 79.0323 93.4532 77.5188C92.314 76.5305 92.0164 76.3806 91.1934 76.3806C90.4084 76.3806 90.1464 76.4974 89.6688 77.0602C88.5628 78.3635 89.1061 79.6665 91.5001 81.4539C95.7162 84.6014 100.351 84.5727 104.617 81.3724C106.916 79.6484 107.451 78.2795 106.3 77.068C105.601 76.3322 104.818 76.1044 104.031 76.4079Z" fill="#282835"/>
</svg>
