<svg width="265" height="188" viewBox="0 0 265 188" fill="none" xmlns="http://www.w3.org/2000/svg">
<path fill-rule="evenodd" clip-rule="evenodd" d="M125.851 0.253187C91.9367 1.99972 60.9218 17.0753 41.6836 41.1646C24.5821 62.5783 18.7242 88.7121 25.2426 114.509C29.337 130.713 39.4054 146.823 52.9779 158.889L56.6584 162.161L56.531 163.729C56.0049 170.22 53.4983 177.491 50.0285 182.591C49.2592 183.722 48.6297 184.677 48.6297 184.713C48.6297 184.749 49.3401 184.722 50.208 184.652C58.1787 184.014 66.8477 180.603 73.3366 175.553L75.0459 174.222L77.9962 175.663C99.0515 185.945 123.845 189.99 147.985 187.08C183.703 182.776 214.849 163.512 231.021 135.721C245.173 111.401 246.131 82.0543 233.585 57.1481C221.807 33.7665 199.758 15.5555 172.122 6.38248C161.397 2.82279 150.741 0.883266 138.365 0.239146C132.2 -0.0820175 132.361 -0.0820184 125.851 0.253187ZM5.64082 24.7623C5.06212 25.0993 4.31808 25.7348 3.9874 26.1745C3.40239 26.9519 3.38405 27.5055 3.30468 46.4906L3.22322 66.0078L4.68394 64.263C6.42845 62.1798 8.76428 60.0521 11.1272 58.3934L12.8557 57.1798V42.345V27.5103L12.1721 26.5023C10.6065 24.1932 7.86933 23.4639 5.64082 24.7623ZM254.532 24.8149C253.974 25.1883 253.21 25.9478 252.834 26.5023L252.151 27.5103V42.345V57.1798L253.929 58.4265C256.209 60.024 259.145 62.7211 260.624 64.5773L261.783 66.0311L261.702 46.5025C261.622 27.5061 261.604 26.9519 261.019 26.1724C259.515 24.1672 256.455 23.5269 254.532 24.8149ZM77.2372 41.7849C74.7402 42.1066 72.7423 42.7687 69.9321 44.2054C67.0653 45.6708 64.5371 47.9252 61.4485 51.7705C48.2413 68.2129 43.309 87.5081 47.2944 107.141C49.1973 116.515 53.5028 125.791 59.9788 134.469C65.6263 142.036 70.7089 145.465 77.5444 146.316C80.8942 146.734 183.628 146.738 187.292 146.321C192.542 145.724 197.207 143.343 200.917 139.37C209.075 130.632 215.423 118.448 217.709 107.141C220.727 92.2138 218.697 77.7558 211.663 64.0898C208.592 58.1227 203.093 50.554 199.379 47.1807C196.085 44.189 191.829 42.2847 187.279 41.7663C184.089 41.4031 80.0621 41.4207 77.2372 41.7849ZM22.5802 58.013C9.75362 63.2643 2.45784 72.7552 0.55009 86.6719C0.0865313 90.0523 0.163189 98.7303 0.688977 102.41C2.30632 113.731 7.36308 121.773 16.1136 126.941C18.5988 128.409 23.3435 130.559 24.9804 130.959L25.8318 131.168L25.0937 129.71C22.0965 123.792 19.0239 112.747 17.9146 103.904C17.4105 99.8868 17.4141 88.2807 17.9203 84.1856C18.9923 75.5121 22.1221 64.2376 25.073 58.4179C25.5621 57.4535 25.6706 57.0006 25.4118 57.0041C25.2023 57.0071 23.9282 57.4612 22.5802 58.013ZM239.864 58.2685C241.728 61.8945 244.688 70.9313 245.819 76.4514C247.092 82.659 247.446 86.4729 247.454 94.0446C247.462 101.92 247.092 105.691 245.667 112.243C244.361 118.242 241.748 126.148 239.847 129.852C239.456 130.615 239.344 131.09 239.556 131.09C240.296 131.09 245.52 128.84 248.006 127.45C253.797 124.212 257.979 119.881 260.815 114.184C262.232 111.336 263.115 108.735 263.92 105.032C264.696 101.468 265.029 91.0346 264.496 87.0232C262.772 74.0635 256.442 64.8345 245.541 59.387C243.526 58.3799 240.039 56.9988 239.512 56.9988C239.347 56.9988 239.505 57.5703 239.864 58.2685ZM88.8911 74.9433C84.9223 75.5235 80.4965 77.9016 77.5405 81.0421C73.9388 84.8686 72.7429 89.0685 74.5755 91.4562C76.2091 93.5845 77.5002 93.6975 83.6521 92.2503C87.2894 91.3946 88.3914 91.2602 91.7689 91.2602C95.141 91.2602 96.2542 91.3955 99.8857 92.247C104.67 93.3688 106.084 93.4593 107.49 92.7339C112.587 90.1043 108.383 80.8685 100.268 76.8694C96.3378 74.9322 92.9215 74.3538 88.8911 74.9433ZM169.785 75.084C165.011 75.942 159.711 79.4387 157.23 83.3658C155.75 85.7081 155.35 86.8631 155.352 88.7862C155.353 91.5365 157.123 93.2792 159.86 93.2248C160.604 93.2102 162.606 92.8576 164.309 92.4418C171.191 90.7601 175.277 90.7547 182.106 92.4179C185.626 93.2753 187.936 93.439 188.933 92.9013C189.298 92.7041 189.972 92.054 190.431 91.4562C192.864 88.2858 189.791 81.947 183.95 78.0877C181.457 76.4407 179.305 75.5761 176.394 75.052C173.65 74.5582 172.683 74.563 169.785 75.084Z" fill="#1B1B23"/>
<path d="M126.553 111.522C125.754 112.265 124.771 113 124.369 113.156C123.307 113.567 122.25 113.259 121.307 112.264C119.754 110.625 120.476 108.774 123.578 106.442C129.335 102.113 135.59 102.075 141.28 106.332C144.511 108.749 145.244 110.511 143.751 112.274C143.107 113.035 142.753 113.193 141.694 113.193C140.583 113.193 140.182 112.991 138.644 111.654C136.29 109.607 134.93 109.024 132.505 109.024C130.097 109.024 128.537 109.679 126.553 111.522Z" fill="#1B1B23"/>
</svg>
