<svg width="45" height="32" viewBox="0 0 45 32" fill="none" xmlns="http://www.w3.org/2000/svg">
<path fill-rule="evenodd" clip-rule="evenodd" d="M21.3688 0.0430956C15.5992 0.340378 10.3228 2.90643 7.04987 7.00675C4.14049 10.6516 3.14391 15.0999 4.25285 19.491C4.94942 22.2489 6.66231 24.9911 8.97132 27.0449L9.59747 27.6018L9.57579 27.8688C9.48629 28.9736 9.05985 30.2112 8.46956 31.0793C8.33868 31.2718 8.23159 31.4343 8.23159 31.4405C8.23159 31.4467 8.35244 31.4421 8.50009 31.4302C9.8561 31.3216 11.3309 30.741 12.4348 29.8813L12.7256 29.6549L13.2276 29.9001C16.8096 31.6502 21.0276 32.3387 25.1344 31.8435C31.211 31.1108 36.5095 27.8318 39.2608 23.1015C41.6685 18.962 41.8314 13.9667 39.697 9.72734C37.6933 5.7475 33.9423 2.64775 29.2407 1.08638C27.4161 0.480475 25.6032 0.150343 23.4978 0.0407057C22.449 -0.0139604 22.4764 -0.0139606 21.3688 0.0430956ZM0.918109 4.21486C0.819658 4.27222 0.693079 4.38038 0.636821 4.45524C0.537296 4.58756 0.534176 4.68179 0.520675 7.91329L0.506815 11.2354L0.75532 10.9384C1.0521 10.5838 1.44949 10.2216 1.85147 9.9393L2.14555 9.73273V7.20767V4.6826L2.02925 4.51102C1.76289 4.11799 1.29723 3.99386 0.918109 4.21486ZM43.2607 4.22381C43.1658 4.28737 43.0358 4.41664 42.9718 4.51102L42.8555 4.6826V7.20767V9.73273L43.1582 9.94494C43.5459 10.2168 44.0454 10.6759 44.2971 10.9919L44.4943 11.2393L44.4804 7.91533C44.4669 4.68189 44.4637 4.58756 44.3643 4.45488C44.1084 4.11356 43.5879 4.00459 43.2607 4.22381ZM13.0984 7.11232C12.6736 7.16709 12.3337 7.27978 11.8556 7.52432C11.3679 7.77375 10.9378 8.15748 10.4124 8.812C8.16551 11.6107 7.3264 14.895 8.00441 18.2368C8.32815 19.8323 9.06062 21.4113 10.1623 22.8884C11.1231 24.1764 11.9878 24.7599 13.1507 24.9049C13.7206 24.9759 31.1982 24.9768 31.8214 24.9058C32.7146 24.804 33.5083 24.3989 34.1395 23.7225C35.5272 22.2353 36.6072 20.1614 36.9962 18.2368C37.5096 15.696 37.1642 13.235 35.9676 10.9089C35.4451 9.89322 34.5097 8.60493 33.8779 8.03076C33.3174 7.52153 32.5934 7.19739 31.8192 7.10917C31.2766 7.04733 13.579 7.05033 13.0984 7.11232ZM3.79993 9.87456C1.6178 10.7684 0.376604 12.3839 0.0520496 14.7527C-0.0268133 15.3281 -0.0137718 16.8052 0.0756776 17.4315C0.350828 19.3584 1.21111 20.7273 2.69979 21.607C3.12259 21.8569 3.92978 22.2229 4.20825 22.2909L4.35309 22.3264L4.22754 22.0783C3.71764 21.071 3.1949 19.1909 3.00618 17.6857C2.92042 17.002 2.92103 15.0265 3.00716 14.3295C3.18953 12.8531 3.72198 10.9341 4.22401 9.94347C4.30722 9.77931 4.32568 9.70222 4.28164 9.70283C4.246 9.70334 4.02925 9.78064 3.79993 9.87456ZM40.7653 9.91804C41.0824 10.5352 41.5859 12.0734 41.7784 13.013C41.995 14.0696 42.0553 14.7188 42.0566 16.0076C42.058 17.3481 41.995 17.99 41.7525 19.1052C41.5304 20.1262 41.0859 21.4721 40.7625 22.1025C40.6958 22.2323 40.6768 22.3133 40.713 22.3133C40.8388 22.3133 41.7275 21.9303 42.1504 21.6937C43.1357 21.1425 43.8471 20.4053 44.3295 19.4355C44.5706 18.9508 44.7208 18.5082 44.8579 17.8778C44.9898 17.2712 45.0465 15.4953 44.9557 14.8125C44.6625 12.6065 43.5857 11.0357 41.7311 10.1084C41.3882 9.93701 40.795 9.70192 40.7053 9.70192C40.6773 9.70192 40.7043 9.7992 40.7653 9.91804ZM15.081 12.7563C14.4059 12.8551 13.6529 13.2598 13.15 13.7944C12.5373 14.4457 12.3338 15.1606 12.6456 15.567C12.9235 15.9293 13.1432 15.9485 14.1898 15.7022C14.8086 15.5565 14.996 15.5337 15.5706 15.5337C16.1443 15.5337 16.3337 15.5567 16.9515 15.7016C17.7653 15.8926 18.0059 15.908 18.2451 15.7845C19.1123 15.3369 18.3971 13.7649 17.0166 13.0842C16.3479 12.7544 15.7667 12.656 15.081 12.7563ZM28.8431 12.7803C28.031 12.9263 27.1292 13.5215 26.7072 14.1899C26.4555 14.5886 26.3874 14.7852 26.3876 15.1125C26.3879 15.5807 26.6891 15.8773 27.1546 15.8681C27.2812 15.8656 27.6218 15.8056 27.9114 15.7348C29.0823 15.4485 29.7774 15.4476 30.9392 15.7307C31.538 15.8766 31.9311 15.9045 32.1006 15.813C32.1627 15.7794 32.2774 15.6688 32.3555 15.567C32.7694 15.0274 32.2467 13.9484 31.2529 13.2915C30.8288 13.0112 30.4627 12.864 29.9675 12.7748C29.5007 12.6908 29.3361 12.6916 28.8431 12.7803ZM23.8847 17.5903C23.8163 17.6169 23.649 17.742 23.513 17.8684C23.1756 18.1822 22.9102 18.2937 22.5005 18.2937C22.088 18.2937 21.8566 18.1945 21.4561 17.8461C21.1946 17.6185 21.1262 17.584 20.9373 17.584C20.757 17.584 20.6969 17.6109 20.5872 17.7405C20.3333 18.0405 20.458 18.3405 21.0077 18.752C21.9757 19.4766 23.0398 19.47 24.0193 18.7332C24.547 18.3363 24.6698 18.0212 24.4056 17.7423C24.2451 17.5729 24.0653 17.5204 23.8847 17.5903Z" fill="#6B6AFF"/>
</svg>
